<?xml version="1.0" encoding="UTF-8"?>
<svg width="16px" height="16px" viewBox="0 0 16 16" version="1.1" xmlns="http://www.w3.org/2000/svg" xmlns:xlink="http://www.w3.org/1999/xlink">
    <!-- Generator: Sketch 51.1 (57501) - http://www.bohemiancoding.com/sketch -->
    <title>Rectangle 30</title>
    <desc>Created with Sketch.</desc>
    <defs></defs>
    <g id="-悬浮" stroke="none" stroke-width="1" fill="none" fill-rule="evenodd">
        <g id="游戏内悬浮-无登录" transform="translate(-44.000000, -134.000000)" fill="#000000">
            <g id="Group-4" transform="translate(15.000000, 128.000000)">
                <g id="下载APP">
                    <g id="Group" transform="translate(29.000000, 4.000000)">
                        <g id="icon" transform="translate(0.000000, 2.000000)">
                            <g id="Group-3" transform="translate(3.000000, 4.000000)">
                                <g id="Group-2">
                                    <path d="M7.09247344,2.00865318 L7.09247344,0.854798531 C7.09247344,0.62022126 7.28577833,0.43005881 7.52423199,0.43005881 C7.62808115,0.43005881 7.72845104,0.466880749 7.80694168,0.533774366 L9.82631351,2.2547833 C10.0065401,2.40838134 10.0260692,2.67662456 9.86993292,2.85392132 C9.79026613,2.94438501 9.67549758,2.99758307 9.55386361,3.00042725 L7.78620112,3.00042725 C7.77760641,3.00087008 7.7689539,3.00109422 7.76024904,3.00109422 L0.504006176,3.00109422 C0.229951151,3.00109422 0.00778565861,2.77892873 0.00778565861,2.5048737 C0.00778565861,2.23081868 0.229951151,2.00865318 0.504006176,2.00865318 L7.09247344,2.00865318 Z" id="Combined-Shape"></path>
                                    <path d="M7.08468778,6.57859437 L7.08468778,5.42473972 C7.08468778,5.19016245 7.27799267,5 7.51644633,5 C7.62029549,5 7.72066538,5.03682194 7.79915602,5.10371556 L9.81852785,6.82472449 C9.99875443,6.97832253 10.0182835,7.24656575 9.86214726,7.42386251 C9.78248047,7.5143262 9.66771193,7.56752426 9.54607795,7.57036844 L7.77841546,7.57036844 C7.76982075,7.57081127 7.76116824,7.57103541 7.75246338,7.57103541 L0.496220517,7.57103541 C0.222165493,7.57103541 -3.51915162e-15,7.34886992 -3.55271368e-15,7.07481489 C-3.58627574e-15,6.80075987 0.222165493,6.57859437 0.496220517,6.57859437 L7.08468778,6.57859437 Z" id="Combined-Shape-Copy" transform="translate(4.983792, 6.285518) scale(-1, -1) translate(-4.983792, -6.285518) "></path>
                                </g>
                            </g>
                        </g>
                    </g>
                </g>
            </g>
        </g>
    </g>
</svg>