<?xml version="1.0" encoding="UTF-8"?>
<svg width="20px" height="20px" viewBox="0 0 20 20" version="1.1" xmlns="http://www.w3.org/2000/svg" xmlns:xlink="http://www.w3.org/1999/xlink">
    <!-- Generator: Sketch 51.1 (57501) - http://www.bohemiancoding.com/sketch -->
    <title>Shape</title>
    <desc>Created with Sketch.</desc>
    <defs></defs>
    <g id="-悬浮" stroke="none" stroke-width="1" fill="none" fill-rule="evenodd">
        <g id="游戏内悬浮-无登录" transform="translate(-261.000000, -83.000000)" fill="#5E5E5E" fill-rule="nonzero">
            <g id="退出" transform="translate(261.000000, 83.000000)">
                <path d="M6.45188841,14.8601939 C6.8814868,15.2818961 7.57795224,15.2818961 8.00755063,14.8601939 C8.43710777,14.4383904 8.43710777,13.7545014 8.00755063,13.3326979 L5.24936766,10.6246017 L11.9000062,10.6246017 C12.5075366,10.6246017 13,10.1410739 13,9.54456694 C13,8.94812075 12.5075366,8.4645929 11.9000062,8.4645929 L5.20564263,8.4645929 L7.9947425,5.7261003 C8.42429964,5.30429683 8.42429964,4.62046852 7.9947425,4.19870555 C7.5651441,3.77690207 6.86867867,3.77690207 6.43908027,4.19870555 L2.55004847,8.01717219 C2.53800346,8.02899864 2,8.40215975 2,9.54456694 C1.99997937,10.5444087 2.55928847,11.0381429 2.5628566,11.0416058 L6.45188841,14.8601939 Z M10.1249974,4.133276 L14.749942,4.133276 C15.3022267,4.133276 15.749942,4.58099125 15.749942,5.133276 L15.749942,14.866704 C15.749942,15.4189888 15.3022267,15.866704 14.749942,15.866704 L10.1249974,15.866704 C9.50365744,15.866704 9,16.3442476 9,16.933332 C9,17.5224564 9.50365744,18 10.1249974,18 L15.187496,18 C16.7407826,18 18,16.806131 18,15.33338 L18,4.66662 C18,3.19386895 16.7407826,2 15.187496,2 L10.1249974,2 C9.50365744,2 9,2.47754358 9,3.066668 C9,3.65573242 9.50365744,4.133276 10.1249974,4.133276 Z" id="Shape"></path>
            </g>
        </g>
    </g>
</svg>