<?xml version="1.0" encoding="UTF-8"?>
<svg width="12px" height="12px" viewBox="0 0 12 12" version="1.1" xmlns="http://www.w3.org/2000/svg" xmlns:xlink="http://www.w3.org/1999/xlink">
    <!-- Generator: Sketch 51.1 (57501) - http://www.bohemiancoding.com/sketch -->
    <title>Rectangle 4 Copy 2</title>
    <desc>Created with Sketch.</desc>
    <defs></defs>
    <g id="-悬浮" stroke="none" stroke-width="1" fill="none" fill-rule="evenodd">
        <g id="游戏内悬浮-无登录" transform="translate(-313.000000, -423.000000)">
            <g id="侧边按钮-copy" transform="translate(305.000000, 339.000000)">
                <g id="刷新" transform="translate(0.000000, 76.000000)">
                    <g id="Group-8" transform="translate(7.000000, 8.000000)">
                        <g id="Group-6" transform="translate(7.371508, 6.371508) rotate(10.000000) translate(-7.371508, -6.371508) translate(1.871508, 0.871508)">
                            <path d="M5.18438561,1.81546823 C2.97188538,1.81546823 1.17829956,3.58394668 1.17829956,5.7654754 C1.17829956,7.94700412 2.97188538,9.71548257 5.18438561,9.71548257 C7.39688584,9.71548257 9.19047166,7.94700412 9.19047166,5.7654754 C9.19047166,4.71666445 8.77590467,3.76332538 8.09953002,3.05607913" id="Oval-12" stroke="#999999"></path>
                            <path d="M6.0089339,1.8062623 L4.72214449,3.20896275 C4.61554337,3.32516626 4.43358713,3.33416024 4.31573386,3.22905136 C4.26956214,3.18787254 4.23818152,3.13303875 4.22630221,3.07278047 L3.78708036,0.844810808 C3.75675842,0.6910016 3.85863483,0.542077903 4.0146277,0.512180422 C4.07574148,0.500467398 4.13905967,0.508614605 4.19507828,0.535399156 L5.92108954,1.36066837 C6.06407699,1.42903591 6.12378154,1.59875036 6.05444337,1.73973622 C6.04254682,1.76392557 6.02722377,1.78632493 6.0089339,1.8062623 Z" id="Triangle-2" fill="#999999"></path>
                        </g>
                    </g>
                </g>
            </g>
        </g>
    </g>
</svg>