<?xml version="1.0" encoding="UTF-8"?>
<svg width="79px" height="79px" viewBox="0 0 79 79" version="1.1" xmlns="http://www.w3.org/2000/svg" xmlns:xlink="http://www.w3.org/1999/xlink">
    <!-- Generator: Sketch 46.1 (44463) - http://www.bohemiancoding.com/sketch -->
    <title>放大镜 (2)</title>
    <desc>Created with Sketch.</desc>
    <defs></defs>
    <g id="Page-1" stroke="none" stroke-width="1" fill="none" fill-rule="evenodd">
        <g id="支付结果查询中" transform="translate(-148.000000, -250.000000)" fill-rule="nonzero" fill="#F3D420">
            <g id="放大镜-(2)" transform="translate(147.000000, 249.000000)">
                <path d="M79.0498294,74.3541024 L64.7508514,60.076715 C67.0519809,57.3068876 68.9538288,54.2074685 70.3386059,50.8268306 C72.0986147,46.5757537 73.0868432,41.9281281 73.0868432,37.0421909 C73.0868432,32.2765027 72.1226645,27.6745172 70.4082957,23.4472167 L70.3386059,23.2600109 C68.5785971,18.9151943 65.9240995,15.0177588 62.7068909,11.7068108 L62.5434615,11.5674312 C59.2325134,8.25648318 55.2413382,5.55634552 50.8268318,3.74823722 C46.551705,1.98576883 41.9040794,1 37.0424651,1 C27.0883037,1 18.0715384,5.03954796 11.5674315,11.5674312 C8.28053312,14.8543295 5.57793585,18.8455045 3.72418749,23.2840606 C1.98576893,27.532678 1,32.1827631 1,37.0421909 C1,41.8557054 1.98576885,46.4363741 3.67608785,50.6390781 L3.72418749,50.8265574 C5.57793585,55.2410637 8.28053312,59.2325121 11.5674315,62.5188637 C14.8999698,65.8541349 18.8936046,68.5299494 23.2600114,70.3142812 L23.308111,70.3142812 C27.5110884,72.0983397 32.1827638,73.0865682 37.0421918,73.0865682 C41.9038061,73.0865682 46.5995313,72.0983397 50.8265585,70.3142812 C54.2071964,68.9532807 57.3303921,67.0754826 60.076443,64.7265268 L74.3778807,79.0495543 C75.6691915,80.3168152 77.7585186,80.3168152 79.0495561,79.0495543 C80.3167086,77.7409196 80.3168296,75.6628846 79.0498294,74.3541024 L79.0498294,74.3541024 Z M57.8717861,57.8477349 L57.8717861,57.8693252 L57.8236865,57.9174247 C55.099499,60.5935125 51.8822905,62.754989 48.2901235,64.2578289 C44.861386,65.6885192 41.0360999,66.4652187 37.0424651,66.4652187 C33.0750665,66.4652187 29.2473207,65.6885192 25.7729432,64.2578289 L25.796993,64.2578289 C22.2237741,62.7742616 18.9765154,60.6037275 16.2393802,57.8693252 L16.2153304,57.8477349 L16.2393802,57.8477349 C13.5151927,55.0994977 11.3318527,51.906339 9.87738581,48.3141722 L9.78364624,48.1266931 C8.39640953,44.7220054 7.62216968,40.9879993 7.6221696,37.0421909 C7.6221696,33.0507426 8.42045931,29.2229969 9.87738581,25.7726693 C11.3321259,22.2020926 13.5151927,18.963294 16.2393802,16.2150567 C21.5699658,10.9085211 28.9420521,7.62162283 37.0424651,7.62162283 C41.0360999,7.62162283 44.8616593,8.41963918 48.2901235,9.82901262 C51.8822905,11.3318524 55.1235489,13.5389689 57.8717861,16.2150567 L58.0111657,16.4022626 C60.6416135,19.0329838 62.8006305,22.2501922 64.2337805,25.7967191 L64.3515699,25.9841983 C65.7125705,29.3648361 66.4649469,33.0988423 66.4649468,37.0421909 C66.4649468,41.0117758 65.7122971,44.8613849 64.2337805,48.3141722 C62.7549905,51.906339 60.5935139,55.1475974 57.8717861,57.8477349 L57.8717861,57.8477349 Z M28.0041095,15.5586063 C26.5950093,16.1694168 25.2558723,16.8736935 24.0585744,17.6938466 C22.7913134,18.5161861 21.6156057,19.5019549 20.5841968,20.5598733 C19.5022287,21.6393818 18.5164599,22.7910396 17.7181701,24.0342507 C16.8742405,25.2315485 16.1696904,26.5950087 15.5588799,27.955736 C15.1358219,28.9655546 15.60452,30.139076 16.5927484,30.5861838 C17.6241573,31.0092418 18.8001383,30.5380842 19.1991465,29.5064021 C19.6921676,28.3790673 20.278655,27.2514593 21.0050685,26.2416406 C21.7093453,25.2077721 22.4860448,24.246053 23.3540243,23.3540238 C24.2384557,22.4698321 25.2145122,21.6823174 26.265691,21.0047947 C27.2995595,20.3002446 28.379068,19.6437942 29.5069493,19.2207362 C30.5383582,18.7758147 30.9857393,17.6241569 30.5864578,16.6143382 C30.1631266,15.6045195 28.9898785,15.1355482 28.0041095,15.5586063 L28.0041095,15.5586063 Z M58.3861241,35.094703 C57.3066156,35.094703 56.4145863,35.9386327 56.4145863,37.0421909 C56.4145863,39.6029489 55.8975154,42.1156074 54.9598462,44.4377803 L54.9117465,44.5798929 C53.9716176,46.7872827 52.5625175,48.9006596 50.7328189,50.7328177 C48.8766109,52.586566 46.7413705,53.9716163 44.4621045,54.9357951 C42.1156084,55.9456138 39.6026766,56.4145851 37.0421918,56.414585 C35.96241,56.414585 35.0947039,57.3066143 35.0947038,58.3861227 C35.0947038,59.4894077 35.9626833,60.3601201 37.0421918,60.3601201 C40.0716479,60.3601201 43.1254271,59.7949496 45.9889941,58.6217015 C48.7588215,57.4484535 51.3195796,55.7556749 53.5510192,53.5504715 C55.7343593,51.3436282 57.4244049,48.7828702 58.5738766,46.0370926 L58.5979264,45.9649432 C59.7736341,43.1254261 60.4060347,40.0716469 60.4060347,37.0421909 C60.4060347,35.9386327 59.4680922,35.094703 58.3861241,35.094703 Z" id="Shape"></path>
            </g>
        </g>
    </g>
</svg>