<?xml version="1.0" encoding="UTF-8"?>
<svg width="14px" height="14px" viewBox="0 0 14 14" version="1.1" xmlns="http://www.w3.org/2000/svg" xmlns:xlink="http://www.w3.org/1999/xlink">
    <!-- Generator: Sketch 51.1 (57501) - http://www.bohemiancoding.com/sketch -->
    <title>icon-礼物</title>
    <desc>Created with Sketch.</desc>
    <defs>
        <linearGradient x1="50%" y1="-16.8083472%" x2="50%" y2="56.8886955%" id="linearGradient-1">
            <stop stop-color="#DF395C" offset="0%"></stop>
            <stop stop-color="#FF8383" offset="100%"></stop>
        </linearGradient>
        <linearGradient x1="50%" y1="0%" x2="50%" y2="100%" id="linearGradient-2">
            <stop stop-color="#FFFBFB" stop-opacity="0.365092844" offset="0%"></stop>
            <stop stop-color="#FFF5F5" offset="100%"></stop>
        </linearGradient>
    </defs>
    <g id="Symbols" stroke="none" stroke-width="1" fill="none" fill-rule="evenodd">
        <g id="tag/礼物">
            <g>
                <path d="M10.9998322,6 L10.9998322,12 C10.9998322,12.5522847 10.5521169,13 9.99983215,13 L2.99983215,13 C2.4475474,13 1.99983215,12.5522847 1.99983215,12 L1.99983215,6 L10.9998322,6 Z" id="Shape" fill="url(#linearGradient-1)" fill-rule="nonzero"></path>
                <g id="Group-3" transform="translate(2.000000, 1.000000)" fill="#FFB85D" fill-rule="nonzero">
                    <path d="M0.986982757,2.97106318 C-0.101033047,2.12101208 -0.197766033,1.19319777 0.312264633,0.54038829 C0.822295299,-0.112421193 1.74595138,-0.243020186 2.83396718,0.607030924 C3.55931105,1.17373166 4.45887931,2.51106052 5.53267196,4.6190175 C3.22755636,4.08708203 1.71232663,3.53776392 0.986982757,2.97106318 Z M1.83549202,2.2757779 C2.06370635,2.45407847 2.53177525,2.63800266 3.23969871,2.82755046 C2.88451911,2.18651111 2.59282214,1.77684114 2.36460781,1.59854057 C2.02228631,1.3310897 1.74331763,1.35728085 1.59720634,1.54429477 C1.45109505,1.7313087 1.49317052,2.00832703 1.83549202,2.2757779 Z" id="Combined-Shape"></path>
                    <path d="M4.44826242,2.97106318 C3.36024662,2.12101208 3.26351363,1.19319777 3.7735443,0.54038829 C4.28357496,-0.112421193 5.20723104,-0.243020186 6.29524685,0.607030924 C7.02059072,1.17373166 7.92015898,2.51106052 8.99395163,4.6190175 C6.68883603,4.08708203 5.17360629,3.53776392 4.44826242,2.97106318 Z M5.29677168,2.2757779 C5.52498601,2.45407847 5.99305491,2.63800266 6.70097837,2.82755046 C6.34579877,2.18651111 6.0541018,1.77684114 5.82588747,1.59854057 C5.48356597,1.3310897 5.20459729,1.35728085 5.058486,1.54429477 C4.91237471,1.7313087 4.95445018,2.00832703 5.29677168,2.2757779 Z" id="Combined-Shape" transform="translate(6.234983, 2.314450) scale(-1, 1) translate(-6.234983, -2.314450) "></path>
                </g>
                <path d="M2.39104651,4 L10.6089535,4 C11.3772073,4 12,4.62279273 12,5.39104651 L12,5.39104651 C12,6.15930028 11.3772073,6.78209301 10.6089535,6.78209301 L2.39104651,6.78209301 C1.62279273,6.78209301 1,6.15930028 1,5.39104651 L1,5.39104651 C1,4.62279273 1.62279273,4 2.39104651,4 Z" id="Rectangle-6" fill="#FF8383"></path>
                <polygon id="Rectangle-18" fill="#FFFFFF" points="6 4 6.99364309 4 6.99364309 6.78209301 6 6.78209301"></polygon>
                <polygon id="Rectangle-18" fill="url(#linearGradient-2)" points="6.00608562 6 7.00389271 6 7.00389271 13 6.00608562 13"></polygon>
            </g>
        </g>
    </g>
</svg>