<?xml version="1.0" encoding="UTF-8"?>
<svg width="19px" height="19px" viewBox="0 0 19 19" version="1.1" xmlns="http://www.w3.org/2000/svg" xmlns:xlink="http://www.w3.org/1999/xlink">
    <!-- Generator: Sketch 51.1 (57501) - http://www.bohemiancoding.com/sketch -->
    <title>ios</title>
    <desc>Created with Sketch.</desc>
    <defs></defs>
    <g id="Page-1" stroke="none" stroke-width="1" fill="none" fill-rule="evenodd">
        <g id="躺倒鸭App下载页-ios" transform="translate(-148.000000, -318.000000)" fill="#000000">
            <g id="下载按钮" transform="translate(71.000000, 308.000000)">
                <g id="Group">
                    <g id="Group-2" transform="translate(77.000000, 10.000000)">
                        <text id="下载安装" font-family="PingFangSC-Medium, PingFang SC" font-size="14" font-weight="400" line-spacing="13">
                            <tspan x="22.992" y="16.672">下载安装</tspan>
                        </text>
                        <path d="M12.2416807,2.73988439 C13.069134,1.6300578 12.9984978,0 12.9984978,0 C12.9984978,0 11.5857726,0.150289017 10.7583193,1.26011561 C9.93086599,2.3583815 10.0015022,4 10.0015022,4 C10.0015022,4 11.4142274,3.84971098 12.2416807,2.73988439 Z M14.6349621,8.97969991 C14.6349621,7.5913504 15.4155411,6.38658429 16.5572835,5.76699029 C15.7534037,4.63106796 14.3553517,4 13.3767153,4 C12.2000215,4 10.5806113,4.81465137 10.114594,4.81465137 C9.61362537,4.81465137 8.57673682,4.08031774 7.17868483,4.05736981 C6.02529195,4.04589585 4.10297048,4.69991174 3.42724535,6.65048544 C2.75152023,8.60105914 2.78647153,11.423654 4.19617394,14.0397176 C5.32626596,16.1509267 6.32820321,17 7.29518917,17 C8.26217512,17 9.40391757,16.2656664 10.3243018,16.2656664 C11.2330356,16.2656664 12.0835172,17 13.0272023,17 C13.9708874,17 14.9378733,16.2427184 15.6368993,15.1985878 C16.3359253,14.1429832 16.9883496,12.5136805 16.9883496,12.5136805 C16.9883496,12.5136805 16.9883496,12.4677846 17,12.4104148 C15.6135985,11.8711386 14.6349621,10.5401589 14.6349621,8.97969991 Z" id="Shape" fill-rule="nonzero"></path>
                    </g>
                </g>
            </g>
        </g>
    </g>
</svg>