<?xml version="1.0" encoding="UTF-8"?>
<svg width="17px" height="18px" viewBox="0 0 17 18" version="1.1" xmlns="http://www.w3.org/2000/svg" xmlns:xlink="http://www.w3.org/1999/xlink">
    <!-- Generator: Sketch 46.1 (44463) - http://www.bohemiancoding.com/sketch -->
    <title>Rectangle 4 Copy</title>
    <desc>Created with Sketch.</desc>
    <defs>
        <polygon id="path-1" points="0.00109756098 0.0146341463 0.00109756098 14.9999817 14.9853476 14.9999817 14.9853476 0.0146341463"></polygon>
    </defs>
    <g id="留存引导弹窗" stroke="none" stroke-width="1" fill="none" fill-rule="evenodd">
        <g id="内部微信-copy" transform="translate(-344.000000, -374.000000)">
            <g id="弹窗" transform="translate(88.000000, 101.000000)">
                <g id="Group-4" transform="translate(48.000000, 271.000000)">
                    <g id="添加" transform="translate(208.000000, 2.000000)">
                        <g id="Group-3" transform="translate(1.000000, 2.000000)">
                            <mask id="mask-2" fill="white">
                                <use xlink:href="#path-1"></use>
                            </mask>
                            <g id="Clip-2"></g>
                            <path d="M13.1122134,14.9999817 L1.87313415,14.9999817 C0.842890244,14.9999817 0,14.1570915 0,13.1268476 L0,1.88776829 C0,0.85752439 0.842890244,0.0146341463 1.87313415,0.0146341463 L13.1122134,0.0146341463 C14.1424573,0.0146341463 14.9853476,0.85752439 14.9853476,1.88776829 L14.9853476,13.1268476 C14.9853476,14.1570915 14.1424573,14.9999817 13.1122134,14.9999817 Z M1.87313415,0.95120122 C1.31121951,0.95120122 0.936567073,1.32585366 0.936567073,1.88776829 L0.936567073,13.1268476 C0.936567073,13.6887805 1.31121951,14.0634146 1.87313415,14.0634146 L13.1122134,14.0634146 C13.6741463,14.0634146 14.0487805,13.6887805 14.0487805,13.1268476 L14.0487805,1.88776829 C14.0487805,1.32585366 13.6741463,0.95120122 13.1122134,0.95120122 L1.87313415,0.95120122 Z" id="Fill-1" stroke="#1E1E1E" stroke-width="0.2" fill="#1E1E1E"></path>
                        </g>
                        <path d="M12.2389878,9.97559146 L4.74635976,9.97559146 C4.46538415,9.97559146 4.27803049,9.78831098 4.27803049,9.50735366 C4.27803049,9.22630488 4.46538415,9.03902439 4.74635976,9.03902439 L12.2389878,9.03902439 C12.5200366,9.03902439 12.7073171,9.22630488 12.7073171,9.50735366 C12.7073171,9.78831098 12.5200366,9.97559146 12.2389878,9.97559146 Z" id="Fill-4" stroke="#1E1E1E" stroke-width="0.2" fill="#1E1E1E"></path>
                        <path d="M8.49271951,13.7219512 C8.21167073,13.7219512 8.02439024,13.5346707 8.02439024,13.253622 L8.02439024,5.7609939 C8.02439024,5.48001829 8.21167073,5.29266463 8.49271951,5.29266463 C8.77367683,5.29266463 8.96095732,5.48001829 8.96095732,5.7609939 L8.96095732,13.253622 C8.96095732,13.5346707 8.77367683,13.7219512 8.49271951,13.7219512 Z" id="Fill-5" stroke="#1E1E1E" stroke-width="0.2" fill="#1E1E1E"></path>
                    </g>
                </g>
            </g>
        </g>
    </g>
</svg>