<?xml version="1.0" encoding="UTF-8"?>
<svg width="18px" height="18px" viewBox="0 0 18 18" version="1.1" xmlns="http://www.w3.org/2000/svg" xmlns:xlink="http://www.w3.org/1999/xlink">
    <!-- Generator: Sketch 46.1 (44463) - http://www.bohemiancoding.com/sketch -->
    <title>Rectangle 4</title>
    <desc>Created with Sketch.</desc>
    <defs></defs>
    <g id="留存引导弹窗" stroke="none" stroke-width="1" fill="none" fill-rule="evenodd">
        <g id="内部微信-copy" transform="translate(-176.000000, -374.000000)" stroke="#1E1E1E" stroke-width="0.2" fill="#1E1E1E">
            <g id="弹窗" transform="translate(88.000000, 101.000000)">
                <g id="Group-4" transform="translate(48.000000, 271.000000)">
                    <g id="Group-5" transform="translate(40.000000, 2.000000)">
                        <path d="M6.45720954,4.6607709 L8.49847887,2.61950158 L8.50219735,11.5954422 C8.50219735,11.8576098 8.71471584,12.0700093 8.97688346,12.0700093 C9.23925931,12.0699201 9.4517778,11.8573718 9.45168856,11.5952042 L9.44805933,2.62229787 L11.4865324,4.6607709 C11.5792563,4.75349489 11.700687,4.79984201 11.8222366,4.79984201 C11.9436673,4.79984201 12.0652169,4.75349489 12.1579409,4.6607709 C12.3432996,4.47541218 12.3432996,4.17481036 12.1579409,3.98933265 L9.31850753,1.14989931 C9.23194135,1.05785953 9.10923155,1 8.972927,1 C8.84590377,1 8.72518707,1.04997635 8.63615182,1.13898186 L5.78592002,3.98933265 C5.60044231,4.17469137 5.60044231,4.47529319 5.78592002,4.6607709 C5.971249,4.84621887 6.27188056,4.84621887 6.45720954,4.6607709 Z M14.3788246,5.92178139 L12.0519463,5.92178139 C11.7897787,5.92178139 11.5772602,6.13432963 11.5772602,6.3964675 C11.5772602,6.65875411 11.7897787,6.8712726 12.0519463,6.8712726 L14.3788246,6.8712726 C15.2950577,6.8712726 16.0405086,7.61672346 16.0405086,8.53286736 L16.0405086,14.757818 C16.0405086,15.6740809 15.2950577,16.4195317 14.3788246,16.4195317 L3.61105622,16.4195317 C2.69494207,16.4195317 1.94949122,15.6740809 1.94949122,14.757818 L1.94949122,8.53286736 C1.94949122,7.61672346 2.69494207,6.8712726 3.61105622,6.8712726 L6.03660801,6.8712726 C6.29874588,6.8712726 6.51129412,6.65875411 6.51129412,6.3964675 C6.51129412,6.13432963 6.29874588,5.92178139 6.03660801,5.92178139 L3.61105622,5.92178139 C2.17132078,5.92178139 1,7.09310217 1,8.53286736 L1,14.757818 C1,16.1975832 2.17132078,17.3689039 3.61105622,17.3689039 L14.3788246,17.3689039 C15.818679,17.3689039 16.9899998,16.1975832 16.9899998,14.757818 L16.9899998,8.53286736 C16.9899998,7.09310217 15.818679,5.92178139 14.3788246,5.92178139 Z" id="分享"></path>
                    </g>
                </g>
            </g>
        </g>
    </g>
</svg>