<?xml version="1.0" encoding="UTF-8"?>
<svg width="20px" height="20px" viewBox="0 0 20 20" version="1.1" xmlns="http://www.w3.org/2000/svg" xmlns:xlink="http://www.w3.org/1999/xlink">
    <!-- Generator: Sketch 46.1 (44463) - http://www.bohemiancoding.com/sketch -->
    <title>ic_tianjia</title>
    <desc>Created with Sketch.</desc>
    <defs>
        <polygon id="path-1" points="0.00109756098 0.0146341463 0.00109756098 14.9999817 14.9853476 14.9999817 14.9853476 0.0146341463"></polygon>
    </defs>
    <g id="Page-1" stroke="none" stroke-width="1" fill="none" fill-rule="evenodd">
        <g id="首页--浮层" transform="translate(-217.000000, -627.000000)">
            <g id="文案" transform="translate(102.000000, 609.000000)">
                <g id="添加" transform="translate(115.000000, 18.000000)">
                    <g id="Group-3" transform="translate(3.000000, 3.000000)">
                        <mask id="mask-2" fill="white">
                            <use xlink:href="#path-1"></use>
                        </mask>
                        <g id="Clip-2"></g>
                        <path d="M13.1122134,14.9999817 L1.87313415,14.9999817 C0.842890244,14.9999817 0,14.1570915 0,13.1268476 L0,1.88776829 C0,0.85752439 0.842890244,0.0146341463 1.87313415,0.0146341463 L13.1122134,0.0146341463 C14.1424573,0.0146341463 14.9853476,0.85752439 14.9853476,1.88776829 L14.9853476,13.1268476 C14.9853476,14.1570915 14.1424573,14.9999817 13.1122134,14.9999817 Z M1.87313415,0.95120122 C1.31121951,0.95120122 0.936567073,1.32585366 0.936567073,1.88776829 L0.936567073,13.1268476 C0.936567073,13.6887805 1.31121951,14.0634146 1.87313415,14.0634146 L13.1122134,14.0634146 C13.6741463,14.0634146 14.0487805,13.6887805 14.0487805,13.1268476 L14.0487805,1.88776829 C14.0487805,1.32585366 13.6741463,0.95120122 13.1122134,0.95120122 L1.87313415,0.95120122 Z" id="Fill-1" fill="#FFFFFF"></path>
                    </g>
                    <path d="M14.2389878,10.9755915 L6.74635976,10.9755915 C6.46538415,10.9755915 6.27803049,10.788311 6.27803049,10.5073537 C6.27803049,10.2263049 6.46538415,10.0390244 6.74635976,10.0390244 L14.2389878,10.0390244 C14.5200366,10.0390244 14.7073171,10.2263049 14.7073171,10.5073537 C14.7073171,10.788311 14.5200366,10.9755915 14.2389878,10.9755915 Z" id="Fill-4" fill="#FFFFFF"></path>
                    <path d="M10.4927195,14.7219512 C10.2116707,14.7219512 10.0243902,14.5346707 10.0243902,14.253622 L10.0243902,6.7609939 C10.0243902,6.48001829 10.2116707,6.29266463 10.4927195,6.29266463 C10.7736768,6.29266463 10.9609573,6.48001829 10.9609573,6.7609939 L10.9609573,14.253622 C10.9609573,14.5346707 10.7736768,14.7219512 10.4927195,14.7219512 Z" id="Fill-5" fill="#FFFFFF"></path>
                </g>
            </g>
        </g>
    </g>
</svg>