<?xml version="1.0" encoding="UTF-8"?>
<svg width="20px" height="20px" viewBox="0 0 20 20" version="1.1" xmlns="http://www.w3.org/2000/svg" xmlns:xlink="http://www.w3.org/1999/xlink">
    <!-- Generator: Sketch 46.1 (44463) - http://www.bohemiancoding.com/sketch -->
    <title>ic_fenxiang</title>
    <desc>Created with Sketch.</desc>
    <defs></defs>
    <g id="Page-1" stroke="none" stroke-width="1" fill="none" fill-rule="evenodd">
        <g id="首页--浮层" transform="translate(-133.000000, -609.000000)" fill="#FFFFFF">
            <g id="文案" transform="translate(102.000000, 609.000000)">
                <g id="ic_fenxiang" transform="translate(31.000000, 0.000000)">
                    <path d="M7.45720954,5.6607709 L9.49847887,3.61950158 L9.50219735,12.5954422 C9.50219735,12.8576098 9.71471584,13.0700093 9.97688346,13.0700093 C10.2392593,13.0699201 10.4517778,12.8573718 10.4516886,12.5952042 L10.4480593,3.62229787 L12.4865324,5.6607709 C12.5792563,5.75349489 12.700687,5.79984201 12.8222366,5.79984201 C12.9436673,5.79984201 13.0652169,5.75349489 13.1579409,5.6607709 C13.3432996,5.47541218 13.3432996,5.17481036 13.1579409,4.98933265 L10.3185075,2.14989931 C10.2319413,2.05785953 10.1092316,2 9.972927,2 C9.84590377,2 9.72518707,2.04997635 9.63615182,2.13898186 L6.78592002,4.98933265 C6.60044231,5.17469137 6.60044231,5.47529319 6.78592002,5.6607709 C6.971249,5.84621887 7.27188056,5.84621887 7.45720954,5.6607709 Z M15.3788246,6.92178139 L13.0519463,6.92178139 C12.7897787,6.92178139 12.5772602,7.13432963 12.5772602,7.3964675 C12.5772602,7.65875411 12.7897787,7.8712726 13.0519463,7.8712726 L15.3788246,7.8712726 C16.2950577,7.8712726 17.0405086,8.61672346 17.0405086,9.53286736 L17.0405086,15.757818 C17.0405086,16.6740809 16.2950577,17.4195317 15.3788246,17.4195317 L4.61105622,17.4195317 C3.69494207,17.4195317 2.94949122,16.6740809 2.94949122,15.757818 L2.94949122,9.53286736 C2.94949122,8.61672346 3.69494207,7.8712726 4.61105622,7.8712726 L7.03660801,7.8712726 C7.29874588,7.8712726 7.51129412,7.65875411 7.51129412,7.3964675 C7.51129412,7.13432963 7.29874588,6.92178139 7.03660801,6.92178139 L4.61105622,6.92178139 C3.17132078,6.92178139 2,8.09310217 2,9.53286736 L2,15.757818 C2,17.1975832 3.17132078,18.3689039 4.61105622,18.3689039 L15.3788246,18.3689039 C16.818679,18.3689039 17.9899998,17.1975832 17.9899998,15.757818 L17.9899998,9.53286736 C17.9899998,8.09310217 16.818679,6.92178139 15.3788246,6.92178139 Z" id="分享-copy"></path>
                </g>
            </g>
        </g>
    </g>
</svg>