<?xml version="1.0" encoding="UTF-8"?>
<svg width="16px" height="16px" viewBox="0 0 16 16" version="1.1" xmlns="http://www.w3.org/2000/svg" xmlns:xlink="http://www.w3.org/1999/xlink">
    <!-- Generator: Sketch 51.1 (57501) - http://www.bohemiancoding.com/sketch -->
    <title>Rectangle 30</title>
    <desc>Created with Sketch.</desc>
    <defs></defs>
    <g id="-悬浮" stroke="none" stroke-width="1" fill="none" fill-rule="evenodd">
        <g id="游戏内悬浮-带下载按钮" transform="translate(-117.000000, -134.000000)">
            <g id="Group-4" transform="translate(15.000000, 128.000000)">
                <g id="下载APP-Copy" transform="translate(93.000000, 0.000000)">
                    <g id="Group" transform="translate(9.000000, 5.000000)">
                        <g id="icon" transform="translate(0.000000, 1.000000)">
                            <g id="Group-3" transform="translate(2.000000, 2.000000)">
                                <g id="Group-2">
                                    <path d="M3.27663165,3.48748815 L2.43210965,3.48748815 C1.32754015,3.48748815 0.432109648,4.38291865 0.432109647,5.48748815 L0.432109648,8.47975397 C0.432109648,9.58432347 1.32754015,10.479754 2.43210965,10.479754 L10.5427032,10.479754 C11.6472727,10.479754 12.5427032,9.58432347 12.5427032,8.47975397 L12.5427032,5.48748815 C12.5427032,4.38291865 11.6472727,3.48748815 10.5427032,3.48748815 L9.60593879,3.48748815" id="Path-2" stroke="#1E1E1E" stroke-linecap="round" fill-rule="nonzero"></path>
                                    <path d="M7,0.571428571 L7,7.42857143 C7,7.74416271 6.77614237,8 6.5,8 C6.22385763,8 6,7.74416271 6,7.42857143 L6,0.571428571 C6,0.255837286 6.22385763,1.42108547e-14 6.5,1.42108547e-14 C6.77614237,1.42108547e-14 7,0.255837286 7,0.571428571 Z" id="Rectangle-31" fill="#000000"></path>
                                    <path d="M5.95973487,5 L8.50108874,5 C8.77167166,5 8.99102246,5.201157 8.99102246,5.44929674 C8.99102246,5.55736429 8.94854866,5.66181124 8.87138743,5.7434902 L6.88621802,7.84488964 C6.78457887,7.95247967 6.63941941,8.0050367 6.49551123,7.99962014 C6.35160305,8.0050367 6.20644358,7.95247967 6.10480444,7.84488964 L4.11963503,5.7434902 C4.0424738,5.66181124 4,5.55736429 4,5.44929674 C4,5.201157 4.2193508,5 4.48993372,5 L5.95973487,5 Z" id="Combined-Shape" fill="#000000"></path>
                                </g>
                            </g>
                        </g>
                    </g>
                </g>
            </g>
        </g>
    </g>
</svg>