<?xml version="1.0" encoding="UTF-8"?>
<svg width="18px" height="18px" viewBox="0 0 18 18" version="1.1" xmlns="http://www.w3.org/2000/svg" xmlns:xlink="http://www.w3.org/1999/xlink">
    <!-- Generator: Sketch 46.1 (44463) - http://www.bohemiancoding.com/sketch -->
    <title>icon_输入短信验证码</title>
    <desc>Created with Sketch.</desc>
    <defs></defs>
    <g id="Page-1" stroke="none" stroke-width="1" fill="none" fill-rule="evenodd">
        <g id="登录注册3" transform="translate(-59.000000, -310.000000)">
            <rect id="Rectangle-20" fill="#000000" opacity="0.5" x="0" y="0" width="375" height="667"></rect>
            <rect id="Rectangle-3" fill="#FFFFFF" x="38" y="183" width="300" height="267" rx="4"></rect>
            <g id="icon_输入短信验证码" transform="translate(59.000000, 310.000000)" fill-rule="nonzero" fill="#979797">
                <g id="验证码" transform="translate(1.000000, 3.000000)">
                    <path d="M15.1555054,7.83328247 C14.927646,7.83328247 14.7422518,8.01005461 14.7422518,8.22732539 L14.7422518,10.5960845 C14.7422518,11.0428734 14.3609773,11.4063522 13.8923301,11.4063522 L2.24535093,11.4063522 C1.77670371,11.4063522 1.39542919,11.0428734 1.39542921,10.5960845 L1.39542921,1.79263637 C1.39542921,1.34584743 1.77670373,0.98235311 2.24535093,0.982353125 L13.8923138,0.982353125 C14.360961,0.982353125 14.7422355,1.34584743 14.7422355,1.79263637 L14.7422355,4.28462991 C14.7422355,4.50186964 14.9276298,4.67859521 15.1554892,4.67859521 C15.3834137,4.67859521 15.5688405,4.50186964 15.5688405,4.28462991 L15.5688405,1.79263637 C15.5688405,0.911352437 14.8167612,0.194360424 13.8923138,0.194360424 L2.24535093,0.194360424 C1.32091979,0.194360424 0.568840499,0.911336919 0.568840499,1.79263637 L0.568840499,10.5960845 C0.568840499,11.4773684 1.32091979,12.1943604 2.24535093,12.1943604 L13.8923138,12.1943604 C14.8167449,12.1943604 15.5688405,11.4773839 15.5688405,10.5960845 L15.5688405,8.22732539 C15.5688405,8.01005461 15.38343,7.83328247 15.1555054,7.83328247 Z" id="Shape"></path>
                    <path d="M11.7827911,5.19436042 L2.97879057,5.19436042 C2.75274379,5.19436042 2.5688405,5.39110389 2.5688405,5.63294266 C2.5688405,5.87474689 2.75274379,6.07147308 2.97879057,6.07147308 L11.7827911,6.07147308 C12.0088378,6.07145581 12.1927573,5.8747469 12.1927573,5.63294266 C12.1927573,5.39110387 12.0088379,5.19436041 11.7827911,5.19436042 Z M15.1489885,5.88017216 C15.0394704,5.88305757 14.9375765,5.93140114 14.8621091,6.0162529 L12.0016497,9.23080643 C11.9498143,9.28905023 11.8802429,9.31951117 11.8051631,9.31717866 C11.7302611,9.31477703 11.6623695,9.27968562 11.6140233,9.21840091 L10.2585502,7.49874867 C10.1879611,7.40916274 10.0889747,7.35437452 9.97984425,7.34445701 C9.87072992,7.33448766 9.76452313,7.3706676 9.68076919,7.44620657 C9.59744037,7.52097753 9.54552526,7.62828633 9.53658643,7.74423308 C9.52729838,7.86097986 9.56107456,7.97456478 9.63164755,8.06404704 L10.9872014,9.78380295 C11.1930083,10.044561 11.4939571,10.1942049 11.8128682,10.1943604 C12.107275,10.194274 12.3924745,10.0635149 12.5955192,9.83553297 L15.4561079,6.62091034 C15.6118724,6.44576425 15.6054112,6.16764187 15.4417477,6.00091012 C15.3624197,5.92017049 15.2579736,5.87740768 15.1489885,5.88017216 Z M2.97879057,8.80570096 C2.75274379,8.80570096 2.5688405,9.00244442 2.5688405,9.24428319 C2.5688405,9.48608742 2.75274379,9.68281361 2.97879057,9.68281361 L7.85091128,9.68281361 C8.07702267,9.68281361 8.26097442,9.48608743 8.26097442,9.24428319 C8.26097442,9.00244441 8.07702267,8.80570094 7.85091128,8.80570096 L2.97879057,8.80570096 Z" id="Shape"></path>
                </g>
            </g>
        </g>
    </g>
</svg>