<?xml version="1.0" encoding="UTF-8"?>
<svg width="54px" height="54px" viewBox="0 0 54 54" version="1.1" xmlns="http://www.w3.org/2000/svg" xmlns:xlink="http://www.w3.org/1999/xlink">
    <!-- Generator: Sketch 46.1 (44463) - http://www.bohemiancoding.com/sketch -->
    <title>icon_QQ</title>
    <desc>Created with Sketch.</desc>
    <defs></defs>
    <g id="Page-1" stroke="none" stroke-width="1" fill="none" fill-rule="evenodd">
        <g id="登录注册" transform="translate(-161.000000, -510.000000)">
            <g id="icon_QQ" transform="translate(161.000000, 510.000000)">
                <circle id="Oval-4-Copy" fill="#12B7F5" cx="27" cy="27" r="27"></circle>
                <g id="qq" transform="translate(14.400000, 12.600000)" fill-rule="nonzero" fill="#FFFFFF">
                    <path d="M0.865241487,15.5876475 C-0.129361001,17.9641061 -0.290828221,20.2312881 0.507641266,20.6548217 C1.05837941,20.9466274 1.92173233,20.2821796 2.72980978,19.0625005 C3.04980846,20.3914261 3.8416354,21.594643 4.97264729,22.559895 C3.78635993,23.0043449 3.01146555,23.7301874 3.01146555,24.5531781 C3.01146555,25.9060899 5.10828569,27 7.69617968,27 C10.0304411,27 11.9636293,26.11104 12.3204585,24.9423427 C12.4163009,24.940868 12.7849325,24.940868 12.8778392,24.9423427 C13.2361511,26.1095653 15.170822,27 17.5035711,27 C20.0914058,27 22.1882852,25.9045851 22.1882852,24.5531781 C22.1882852,23.7316621 21.4141618,23.0043449 20.2271035,22.559895 C21.356603,21.5931382 22.1513361,20.3914261 22.4698817,19.0625005 C23.2779888,20.2821796 24.1391176,20.9466274 24.6905971,20.6548217 C25.4897783,20.2312881 25.3320475,17.9626014 24.3337976,15.5876475 C23.5522607,13.7199828 22.4919741,12.3447403 21.6810202,12.0409566 C21.6928225,11.9227115 21.6986941,11.8014568 21.6986941,11.6817672 C21.6986941,10.9604389 21.5011673,10.2929816 21.1634651,9.7497584 C21.1693663,9.70783541 21.1693663,9.66446784 21.1693663,9.62254485 C21.1693663,9.29035106 21.0911978,8.97907362 20.9584062,8.70968907 C20.7535252,3.85501898 17.6392095,0 12.5998902,0 C7.55760552,0 4.44183678,3.85501898 4.23909089,8.70968907 C4.10490555,8.98057839 4.02750804,9.29182574 4.02750804,9.62254485 C4.02750804,9.66446784 4.03044381,9.70786551 4.03195617,9.7497584 C3.69721935,10.2929816 3.4996333,10.9589342 3.4996333,11.6817672 C3.4996333,11.8014869 3.50408143,11.9211766 3.5144011,12.0409566 C2.70925941,12.3447403 1.64535501,13.7215177 0.865300795,15.5876475 L0.865241487,15.5876475 Z" id="Shape"></path>
                </g>
            </g>
        </g>
    </g>
</svg>