<?xml version="1.0" encoding="UTF-8"?>
<svg width="54px" height="54px" viewBox="0 0 54 54" version="1.1" xmlns="http://www.w3.org/2000/svg" xmlns:xlink="http://www.w3.org/1999/xlink">
    <!-- Generator: Sketch 46.1 (44463) - http://www.bohemiancoding.com/sketch -->
    <title>icon_微信</title>
    <desc>Created with Sketch.</desc>
    <defs></defs>
    <g id="Page-1" stroke="none" stroke-width="1" fill="none" fill-rule="evenodd">
        <g id="登录注册" transform="translate(-47.000000, -510.000000)">
            <g id="icon_微信" transform="translate(47.000000, 510.000000)">
                <circle id="Oval-4" fill="#3DAF34" cx="27" cy="27" r="27"></circle>
                <g id="微信" transform="translate(11.700000, 14.400000)" fill-rule="nonzero" fill="#FFFFFF">
                    <path d="M31.5,16.2548413 C31.5,11.9254678 27.1231858,8.4 22.1994344,8.4 C16.9827985,8.4 12.8863636,11.9254678 12.8863636,16.2548413 C12.8863636,20.5952807 16.9827985,24.1083808 22.1994344,24.1083808 C23.2906762,24.1083808 24.3944232,23.833035 25.4850068,23.5700569 L28.4915162,25.2 L27.6688067,22.4908055 C29.8624792,20.8602115 31.5,18.6899919 31.5,16.2548413 Z M19.1784454,14.8995932 C18.6341408,14.8995932 18.0885199,14.3606184 18.0885199,13.8196908 C18.0885199,13.2820179 18.6341408,12.7417412 19.1784454,12.7417412 C20.0037875,12.7417412 20.5500666,13.2820179 20.5500666,13.8196908 C20.5500665,14.3606184 20.0037875,14.8995932 19.1784454,14.8995932 Z M25.2066019,14.8995932 C24.6616392,14.8995932 24.1173346,14.3606184 24.1173346,13.8196908 C24.1173346,13.2820179 24.6616392,12.7417412 25.2066019,12.7417412 C26.0306277,12.7417412 26.5769068,13.2820179 26.5769068,13.8196908 C26.5769068,14.3606184 26.0174643,14.8995932 25.2066019,14.8995932 Z" id="Shape"></path>
                    <path d="M21.129428,7.73862707 C21.4837959,7.73862707 21.8394642,7.76347648 22.1931818,7.80009664 C21.2399648,3.32066489 16.4816821,0 11.0478247,0 C4.97935623,4.3560598e-16 0,4.15835133 0,9.4486583 C0,12.5005573 1.65219955,15.009693 4.41691913,16.9544857 L3.31610299,20.3 L7.18163874,18.3447444 C8.56399855,18.6148182 9.67716879,18.8986245 11.0478247,18.8986245 C11.3898385,18.8986245 11.7338029,18.8861998 12.0764668,18.8508875 C11.8560435,18.1112908 11.7338029,17.3259189 11.7338029,16.5248526 C11.7331526,11.6759495 15.8815325,7.73862707 21.129428,7.73862707 Z M15.18255,4.72400219 C16.0141766,4.72400219 16.5642595,5.27788228 16.5642595,6.11491479 C16.5642595,6.95063943 16.0135264,7.50451952 15.18255,7.50451952 C14.3502731,7.50451952 13.5192967,6.95063943 13.5192967,6.11491479 C13.5316509,5.27722836 14.361977,4.72400219 15.18255,4.72400219 Z M7.45082828,7.50321168 C6.61855144,7.50321168 5.78757505,6.94998551 5.78757505,6.11360695 C5.78757505,5.27657444 6.61920165,4.72334827 7.45082828,4.72334827 C8.28375533,4.72334827 8.8344885,5.27722836 8.8344885,6.11360695 C8.83383829,6.93821474 8.28375533,7.50321168 7.45082828,7.50321168 Z" id="Shape"></path>
                </g>
            </g>
        </g>
    </g>
</svg>