<?xml version="1.0" encoding="UTF-8"?>
<svg width="24px" height="24px" viewBox="0 0 24 24" version="1.1" xmlns="http://www.w3.org/2000/svg" xmlns:xlink="http://www.w3.org/1999/xlink">
    <!-- Generator: Sketch 51.1 (57501) - http://www.bohemiancoding.com/sketch -->
    <title>Rectangle 3</title>
    <desc>Created with Sketch.</desc>
    <defs></defs>
    <g id="-悬浮" stroke="none" stroke-width="1" fill="none" fill-rule="evenodd">
        <g id="游戏内悬浮-无登录" transform="translate(-236.000000, -176.000000)">
            <g id="按钮" transform="translate(15.000000, 168.000000)">
                <g id="更多游戏" transform="translate(209.000000, 8.000000)">
                    <path d="M34.2805238,19.107977 L33.00065,8.78184013 C32.7213893,6.5287394 30.7958636,4.84388928 28.5256316,4.86616395 L25.2842941,4.89796674 C24.7886334,4.90282998 24.2929388,4.90319876 23.7972715,4.89907304 L19.8435422,4.86616395 C17.1664261,4.84388082 14.8978044,6.83192458 14.5684974,9.48880323 L13.3762482,19.107977 C13.1807938,20.6849209 14.3007123,22.1217337 15.8776563,22.3171881 C15.9950621,22.33174 16.1132536,22.3390367 16.2315578,22.3390367 L17.0732546,22.3390367 C18.5534122,22.3390367 19.9071924,21.5048013 20.5726025,20.1826455 L21.10381,19.1271473 C21.4435189,18.4521529 22.1346584,18.0262543 22.8903168,18.0262543 L24.7664552,18.0262543 C25.5221136,18.0262543 26.2132531,18.4521529 26.552962,19.1271473 L27.0841695,20.1826455 C27.7495796,21.5048013 29.1033598,22.3390367 30.5835174,22.3390367 L31.4252142,22.3390367 C33.0142247,22.3390367 34.3023723,21.0508891 34.3023723,19.4618785 C34.3023723,19.3435743 34.2950756,19.2253828 34.2805238,19.107977 Z" id="Combined-Shape" stroke="#999999"></path>
                    <path d="M26.2782358,10.6556251 L30.626346,10.6556251 C30.9240815,10.6556251 31.1654438,10.8969874 31.1654438,11.1947229 L31.1654438,11.1947229 C31.1654438,11.4924584 30.9240815,11.7338207 30.626346,11.7338207 L26.2782358,11.7338207 C25.9805003,11.7338207 25.739138,11.4924584 25.739138,11.1947229 L25.739138,11.1947229 C25.739138,10.8969874 25.9805003,10.6556251 26.2782358,10.6556251 Z" id="Rectangle-11" fill="#999999"></path>
                    <path d="M28.9949215,9.03833172 L28.9949215,13.3511141 C28.9949215,13.6488496 28.7519775,13.8902119 28.4522909,13.8902119 C28.1526043,13.8902119 27.9096603,13.6488496 27.9096603,13.3511141 L27.9096603,9.03833172 C27.9096603,8.74059622 28.1526043,8.49923392 28.4522909,8.49923392 C28.7519775,8.49923392 28.9949215,8.74059622 28.9949215,9.03833172 Z" id="Rectangle-11-Copy" fill="#999999"></path>
                    <path d="M19.75,13.5 C20.9926407,13.5 22,12.4926407 22,11.25 C22,10.0073593 20.9926407,9 19.75,9 C18.5073593,9 17.5,10.0073593 17.5,11.25 C17.5,12.4926407 18.5073593,13.5 19.75,13.5 Z" id="Oval-2" stroke="#999999"></path>
                </g>
            </g>
        </g>
    </g>
</svg>