<?xml version="1.0" encoding="UTF-8"?>
<svg width="24px" height="24px" viewBox="0 0 24 24" version="1.1" xmlns="http://www.w3.org/2000/svg" xmlns:xlink="http://www.w3.org/1999/xlink">
    <!-- Generator: Sketch 51.1 (57501) - http://www.bohemiancoding.com/sketch -->
    <title>Group 7</title>
    <desc>Created with Sketch.</desc>
    <defs></defs>
    <g id="-悬浮" stroke="none" stroke-width="1" fill="none" fill-rule="evenodd">
        <g id="游戏内悬浮-更多游戏" transform="translate(-176.000000, -174.000000)">
            <rect fill="#FFFFFF" x="0" y="0" width="375" height="667"></rect>
            <rect id="Rectangle-3" fill="#000000" opacity="0.400000006" x="0" y="0" width="375" height="667"></rect>
            <rect id="Rectangle-29" fill="#FFFFFF" x="0" y="64" width="306" height="667"></rect>
            <g id="按钮" transform="translate(14.000000, 168.000000)">
                <g id="Group-5" stroke="#F0F0F0">
                    <path d="M139,42 L139,9.68421053 C139,4.33576874 142.581722,9.82492817e-16 147,0 L200,0 C204.418278,-9.82492817e-16 208,4.33576874 208,9.68421053 L208,46" id="Rectangle-33"></path>
                </g>
                <g id="更多游戏-选中" transform="translate(150.000000, 6.000000)">
                    <g id="Group-7" transform="translate(12.000000, 0.000000)">
                        <path d="M22.2805238,19.107977 L21.00065,8.78184013 C20.7213893,6.5287394 18.7958636,4.84388928 16.5256316,4.86616395 L13.2842941,4.89796674 C12.7886334,4.90282998 12.2929388,4.90319876 11.7972715,4.89907304 L7.84354223,4.86616395 C5.16642611,4.84388082 2.89780435,6.83192458 2.56849735,9.48880323 L1.37624823,19.107977 C1.18079381,20.6849209 2.30071235,22.1217337 3.87765629,22.3171881 C3.99506209,22.33174 4.11325365,22.3390367 4.23155783,22.3390367 L5.0732546,22.3390367 C6.55341223,22.3390367 7.90719243,21.5048013 8.57260249,20.1826455 L9.10381001,19.1271473 C9.44351891,18.4521529 10.1346584,18.0262543 10.8903168,18.0262543 L12.7664552,18.0262543 C13.5221136,18.0262543 14.2132531,18.4521529 14.552962,19.1271473 L15.0841695,20.1826455 C15.7495796,21.5048013 17.1033598,22.3390367 18.5835174,22.3390367 L19.4252142,22.3390367 C21.0142247,22.3390367 22.3023723,21.0508891 22.3023723,19.4618785 C22.3023723,19.3435743 22.2950756,19.2253828 22.2805238,19.107977 Z" id="Combined-Shape" stroke="#1E1E1E"></path>
                        <path d="M20.2387585,17.9672345 L19.2043885,10.3903205 C18.9373171,8.43398318 17.2570933,6.98150028 15.2826988,7.0001845 L12.604241,7.02553145 C12.086945,7.03042676 11.5696143,7.03042671 11.0523183,7.02553129 L8.37393565,7.0001845 C6.39958416,6.98150028 4.7193968,8.43395138 4.45233126,10.3902461 L3.41795107,17.9672345 C3.28768042,18.9214864 3.86439939,19.8306392 4.78318704,20.1194233 L4.78318704,20.1194233 C5.70325651,20.4086103 6.69815947,19.9955593 7.14286864,19.139761 L7.56551139,18.3264273 C8.29764956,16.9175007 9.75335623,16.0334314 11.3411536,16.0334314 L12.5029658,16.0334314 C14.0627081,16.0334314 15.4856226,16.9237346 16.1677143,18.3264273 L16.5535153,19.1198109 C16.9725757,19.981591 17.9593478,20.4067576 18.8735225,20.1194233 L18.8735225,20.1194233 C19.7923102,19.8306392 20.3690292,18.9214864 20.2387585,17.9672345 Z" id="Combined-Shape-Copy-4" fill="#FFDE1E"></path>
                        <path d="M14.2782358,10.6556251 L18.626346,10.6556251 C18.9240815,10.6556251 19.1654438,10.8969874 19.1654438,11.1947229 L19.1654438,11.1947229 C19.1654438,11.4924584 18.9240815,11.7338207 18.626346,11.7338207 L14.2782358,11.7338207 C13.9805003,11.7338207 13.739138,11.4924584 13.739138,11.1947229 L13.739138,11.1947229 C13.739138,10.8969874 13.9805003,10.6556251 14.2782358,10.6556251 Z" id="Rectangle-11" fill="#1E1E1E"></path>
                        <path d="M16.9949215,9.03833172 L16.9949215,13.3511141 C16.9949215,13.6488496 16.7519775,13.8902119 16.4522909,13.8902119 C16.1526043,13.8902119 15.9096603,13.6488496 15.9096603,13.3511141 L15.9096603,9.03833172 C15.9096603,8.74059622 16.1526043,8.49923392 16.4522909,8.49923392 C16.7519775,8.49923392 16.9949215,8.74059622 16.9949215,9.03833172 Z" id="Rectangle-11-Copy" fill="#1E1E1E"></path>
                        <path d="M7.75,13.5 C8.99264069,13.5 10,12.4926407 10,11.25 C10,10.0073593 8.99264069,9 7.75,9 C6.50735931,9 5.5,10.0073593 5.5,11.25 C5.5,12.4926407 6.50735931,13.5 7.75,13.5 Z" id="Oval-2" stroke="#1E1E1E" fill="#FFFFFF"></path>
                    </g>
                </g>
            </g>
        </g>
    </g>
</svg>