<?xml version="1.0" encoding="UTF-8"?>
<svg width="44px" height="44px" viewBox="0 0 44 44" version="1.1" xmlns="http://www.w3.org/2000/svg" xmlns:xlink="http://www.w3.org/1999/xlink">
    <!-- Generator: Sketch 46.1 (44463) - http://www.bohemiancoding.com/sketch -->
    <title>Mask</title>
    <desc>Created with Sketch.</desc>
    <defs>
        <rect id="path-1" x="0" y="0" width="44" height="44" rx="8"></rect>
        <path d="M8.984375,9.91875219 L8.984375,8.48125219 C8.984375,8.08429753 8.66257966,7.76250219 8.265625,7.76250219 C7.86867034,7.76250219 7.546875,8.08429753 7.546875,8.48125219 L7.546875,8.48125219 L7.546875,9.91875219 L6.109375,9.91875219 C5.71242034,9.91875219 5.390625,10.2405475 5.390625,10.6375022 C5.390625,11.0344569 5.71242034,11.3562522 6.109375,11.3562522 L7.546875,11.3562522 L7.546875,12.7937522 C7.546875,13.1907069 7.86867034,13.5125022 8.265625,13.5125022 C8.66257966,13.5125022 8.984375,13.1907069 8.984375,12.7937522 L8.984375,11.3562522 L10.421875,11.3562522 C10.8188297,11.3562522 11.140625,11.0344569 11.140625,10.6375022 C11.140625,10.2405475 10.8188297,9.91875219 10.421875,9.91875219 L8.984375,9.91875219 Z" id="path-3"></path>
    </defs>
    <g id="留存引导弹窗" stroke="none" stroke-width="1" fill="none" fill-rule="evenodd">
        <g id="内部微信-copy" transform="translate(-330.000000, -726.000000)">
            <g id="弹窗" transform="translate(88.000000, 101.000000)">
                <g id="Group" transform="translate(46.000000, 625.000000)">
                    <g id="Group-2" transform="translate(3.000000, 0.000000)">
                        <g id="Bitmap-Copy" transform="translate(193.000000, 0.000000)">
                            <mask id="mask-2" fill="white">
                                <use xlink:href="#path-1"></use>
                            </mask>
                            <use id="Mask" fill="#FF991D" xlink:href="#path-1"></use>
                            <g id="游戏icon" transform="translate(8.299988, 10.000000)">
                                <path d="M14.815446,15.9588715 C14.4221392,15.9580826 14.0457076,15.9387493 13.6861512,15.9324019 C13.3265948,15.9387493 12.9501632,15.9580826 12.5568564,15.9904018 C10.9223934,16.0721122 9.72194408,16.5193362 8.95550836,17.3005437 C7.32885629,18.9585468 5.71210453,20.5010462 3.73654129,20.0433815 C1.76097804,19.5857169 0.925301292,16.6067715 1.91383294,10.873438 C2.90236458,5.14010442 6.64291705,2.7156945 9.37510452,4.04107808 C10.8171413,4.74060983 12.0066388,5.30265994 13.6861512,5.30895118 C15.3656636,5.31524242 16.555161,4.74060983 17.9971978,4.04107808 C20.7293853,2.7156945 24.4699377,5.14010442 25.4584694,10.873438 C26.447001,16.6067715 25.6113243,19.5857169 23.635761,20.0433815 C21.6601978,20.5010462 20.043446,18.9585468 18.416794,17.3005437 C17.6503582,16.5193362 16.4499089,16.0721122 14.815446,15.9588715 Z" id="Combined-Shape" fill="#FFFFFF"></path>
                                <g id="Combined-Shape">
                                    <use fill="#D8D8D8" fill-rule="evenodd" xlink:href="#path-3"></use>
                                    <path stroke="#F5A623" stroke-width="1" d="M10.421875,10.4187522 L8.484375,10.4187522 L8.484375,8.48125219 C8.484375,8.3604399 8.38643729,8.26250219 8.265625,8.26250219 C8.14481271,8.26250219 8.046875,8.3604399 8.046875,8.48125219 L8.046875,10.4187522 L6.109375,10.4187522 C5.98856271,10.4187522 5.890625,10.5166899 5.890625,10.6375022 C5.890625,10.7583145 5.98856271,10.8562522 6.109375,10.8562522 L8.046875,10.8562522 L8.046875,12.7937522 C8.046875,12.9145645 8.14481271,13.0125022 8.265625,13.0125022 C8.38643729,13.0125022 8.484375,12.9145645 8.484375,12.7937522 L8.484375,10.8562522 L10.421875,10.8562522 C10.5426873,10.8562522 10.640625,10.7583145 10.640625,10.6375022 C10.640625,10.5166899 10.5426873,10.4187522 10.421875,10.4187522 Z"></path>
                                </g>
                                <circle id="Oval" stroke="#F5A623" cx="19.046875" cy="10.421875" r="2.28515625"></circle>
                            </g>
                        </g>
                    </g>
                </g>
            </g>
        </g>
    </g>
</svg>