<?xml version="1.0" encoding="UTF-8"?>
<svg width="169px" height="61px" viewBox="0 0 169 61" version="1.1" xmlns="http://www.w3.org/2000/svg" xmlns:xlink="http://www.w3.org/1999/xlink">
    <!-- Generator: Sketch 46.1 (44463) - http://www.bohemiancoding.com/sketch -->
    <title>img_pipao</title>
    <desc>Created with Sketch.</desc>
    <defs></defs>
    <g id="Page-1" stroke="none" stroke-width="1" fill="none" fill-rule="evenodd" opacity="0.5">
        <g id="首页--浮层" transform="translate(-104.000000, -602.000000)" fill="#000000">
            <g id="Group" transform="translate(95.000000, 602.000000)">
                <path d="M102.549588,51.6389215 L173.5,51.6389215 C175.709139,51.6389215 177.5,49.8480605 177.5,47.6389215 L177.5,4 C177.5,1.790861 175.709139,-4.05812251e-16 173.5,0 L13.5,0 L13.5,0 C11.290861,4.05812251e-16 9.5,1.790861 9.5,4 L9.5,4 L9.5,47.6389215 C9.5,49.8480605 11.290861,51.6389215 13.5,51.6389215 L83.027595,51.6389215 L83.0115501,51.6549665 L91.3583332,60.0017496 C92.1393818,60.7827982 93.4057117,60.7827982 94.1867603,60.0017496 L102.549588,51.6389215 Z" id="img_pipao"></path>
            </g>
        </g>
    </g>
</svg>