<?xml version="1.0" encoding="UTF-8"?>
<svg width="61px" height="52px" viewBox="0 0 61 52" version="1.1" xmlns="http://www.w3.org/2000/svg" xmlns:xlink="http://www.w3.org/1999/xlink">
    <!-- Generator: Sketch 46.1 (44463) - http://www.bohemiancoding.com/sketch -->
    <title>Rectangle 16</title>
    <desc>Created with Sketch.</desc>
    <defs>
        <rect id="path-1" x="0" y="0" width="72" height="39"></rect>
        <polygon id="path-3" points="17.0198044 1.39533333 17.0198044 16.2469311 2.20835534 16.2469311 2.20835534 1.39533333"></polygon>
    </defs>
    <g id="Page-1" stroke="none" stroke-width="1" fill="none" fill-rule="evenodd" opacity="0.35">
        <g id="首页_热门-copy-2" transform="translate(-157.000000, -98.000000)">
            <g id="banner" transform="translate(0.000000, 64.000000)">
                <g id="鸭子" transform="translate(151.000000, 34.000000)">
                    <path d="M13.54,39.5 L60.46,39.5" id="Line" stroke="#717171" stroke-linecap="round"></path>
                    <path d="M9.5,39.5 L11.5,39.5" id="Line-Copy" stroke="#717171" stroke-linecap="round"></path>
                    <g>
                        <mask id="mask-2" fill="white">
                            <use xlink:href="#path-1"></use>
                        </mask>
                        <g id="Mask"></g>
                        <g mask="url(#mask-2)">
                            <g transform="translate(35.614249, 35.341676) rotate(54.000000) translate(-35.614249, -35.341676) translate(8.114249, 8.841676)">
                                <path d="M37.632629,41.7688851 L47.0475654,42.5623234 C47.1880252,40.411688 50.195517,40.4659758 49.8443675,42.8003549 L49.7245636,44.3037117 C49.7245636,44.3037117 49.5469233,44.9676943 48.6959022,45.3310055 L34.6540554,44.3538236 L33.7534604,42.4829796 L37.632629,41.7688851 Z" id="Fill-5" stroke="#717171" stroke-width="1" fill="#C8C9C9" fill-rule="evenodd" transform="translate(41.813162, 43.164339) rotate(27.000000) translate(-41.813162, -43.164339) "></path>
                                <path d="M5.65766207,8.98401155 C4.81799402,8.66562196 3.9863997,8.20028331 3.28802194,7.63289672 C2.69863956,7.14714849 2.06485165,6.52261505 1.92759822,5.72664106 C1.83071345,5.17150022 1.98411434,4.33062513 2.3999115,3.93467909 C3.02562568,3.66527251 3.64730298,3.39586593 4.26898029,3.12237743 C5.64555148,3.51832346 5.61729342,4.32246129 4.19631671,5.54703667 C3.65941358,5.48988982 3.66345045,6.34301066 4.19631671,6.40015751 C5.89180028,6.59608957 7.07460191,5.02455117 6.0896067,3.45709469 C5.09653775,1.85290095 2.90855657,1.89372013 1.82263971,3.30606373 C-0.429931313,6.2368808 2.88433538,8.83706251 5.4315976,9.80447706 C5.94024267,9.9963272 6.15823341,9.1758617 5.65766207,8.98401155" id="Fill-9" stroke="none" fill="#717171" fill-rule="evenodd"></path>
                                <path d="M28.7832782,7.13503212 C32.548483,4.92780622 39.5325687,-0.142745388 40.6362905,1.54111767 C40.3299062,2.50061622 40.034596,2.71299534 40.2413131,3.47907719 C40.5144751,4.16172437 40.7489604,10.6677519 35.138067,13.6145123 C31.3974714,15.5790192 29.0614314,13.6679941 28.1299468,7.88143705 L28.7832782,7.13503212 Z" id="Fill-11" stroke="none" fill="#FEFEFE" fill-rule="evenodd"></path>
                                <g id="Group-15" stroke="none" stroke-width="1" fill="none" fill-rule="evenodd" transform="translate(26.764728, 0.618034)">
                                    <mask id="mask-4" fill="white">
                                        <use xlink:href="#path-3"></use>
                                    </mask>
                                    <g id="Clip-14"></g>
                                    <path d="M1.38692294,8.26846038 C3.5864883,6.86556221 5.70777731,5.32021592 7.91517031,3.93026759 C9.0619188,3.20507715 10.2752022,2.40218774 11.5354514,1.93599389 C13.0422711,1.38778445 12.807442,1.58203189 12.7839591,2.97198022 C12.7056828,7.90586516 10.9718617,11.8857793 6.82321526,14.4023628 C6.30267755,14.7174753 6.764508,15.5937471 7.28895953,15.2786346 C10.001235,13.6340063 12.0638167,11.1476391 13.1362027,7.9231316 C13.8406898,5.81662604 13.4767048,3.59788864 14.1655366,1.59929833 C14.2203301,1.42663394 14.1498814,1.22806989 14.0442083,1.10288821 C12.9209427,-0.230944202 10.6900668,1.18490379 9.5589736,1.79786238 C6.5609895,3.42522425 3.80566207,5.54899624 0.921178672,7.3921886 C0.408468597,7.71593433 0.874212864,8.59652272 1.38692294,8.26846038" id="Fill-13" fill="#717171"></path>
                                </g>
                                <path d="M11.5103886,35.7562114 C9.73526329,34.3858359 7.25093715,33.8334033 5.4036177,32.4030739 C3.9809694,31.3153384 2.76216323,30.0091993 1.76843278,28.4975038 C-1.65441658,23.2729473 0.239616684,15.6373865 4.47358791,9.64627625 C8.60988478,3.8050508 16.8654917,-1.70214563 24.0127069,2.84578797 C25.1465788,3.56523509 26.4205922,4.58445185 28.0216024,5.73214131 C30.1534515,7.25668402 30.5866161,7.73631543 31.8436427,8.62705949 L38.0608281,12.4812405 C44.9277604,16.7465342 48.7073335,23.6797776 46.7835732,31.8420765 C45.4203789,37.6105007 40.5876214,43.6315879 34.6974327,45.1861076 C30.8456655,46.2010419 25.2739802,45.1775428 21.8383907,43.1776511 C21.0569958,42.5224403 18.3348538,40.9764855 11.5103886,35.7562114 Z" id="Fill-16" stroke="none" fill="#FEFEFE" fill-rule="evenodd"></path>
                                <path d="M21.8383907,43.1776511 C21.0569958,42.5224403 18.3348538,40.9764855 11.5103886,35.7562114 C9.73526329,34.3858359 7.25093715,33.8334033 5.4036177,32.4030739 C3.9809694,31.3153384 2.76216323,30.0091993 1.76843278,28.4975038 C-1.65441658,23.2729473 0.239616684,15.6373865 4.47358791,9.64627625 C8.60988478,3.8050508 16.8654917,-1.70214563 24.0127069,2.84578797 C25.1465788,3.56523509 26.4205922,4.58445185 28.0216024,5.73214131 C30.1534515,7.25668402 30.5866161,7.73631543 31.8436427,8.62705949 L38.0608281,12.4812405 C44.9277604,16.7465342 48.7073335,23.6797776 46.7835732,31.8420765 C45.4203789,37.6105007 40.5876214,43.6315879 34.6974327,45.1861076 C30.8456655,46.2010419 25.2739802,45.1775428 21.8383907,43.1776511 Z" id="Stroke-18" stroke="#717171" stroke-width="1" fill="none"></path>
                                <path d="M10.6147812,18.6776276 C10.9500648,18.9246276 11.0661245,19.3492942 10.8683931,19.6266276 L9.935617,20.9266276 C9.72928864,21.1996276 9.29084088,21.2256276 8.94696028,20.9786276 C8.60737819,20.7272942 8.495617,20.3069609 8.69764685,20.0296276 L9.63472147,18.7339609 C9.83675133,18.4436276 10.2709006,18.4219609 10.6147812,18.6776276" id="Fill-20" stroke="none" fill="#717171" fill-rule="evenodd"></path>
                                <path d="M17.0625424,8.9261304 C17.397826,9.16879706 17.5095871,9.59779706 17.3204528,9.87946373 L16.3747812,11.1751304 C16.1770498,11.4437971 15.7386021,11.4741304 15.3947215,11.2271304 C15.0551394,10.9757971 14.9433782,10.5511304 15.145408,10.2781304 L16.0781842,8.98246373 C16.280214,8.69646373 16.7186618,8.67046373 17.0625424,8.9261304" id="Fill-22" stroke="none" fill="#717171" fill-rule="evenodd"></path>
                                <path d="M23.3992906,12.9036133 C24.8423114,14.0067153 25.0814637,16.2997779 24.205923,17.6069972 L17.9474283,26.9225638 C17.075941,28.2341261 14.9600509,28.7509337 13.5170301,27.6521746 C12.0659025,26.5577584 11.3241249,25.0160213 12.1915588,23.7174877 L19.4553039,12.8949274 C20.3267912,11.5963939 21.9562698,11.8091971 23.3992906,12.9036133" id="Fill-24" stroke="none" fill="#B4B5B5" fill-rule="evenodd"></path>
                                <path d="M23.3992906,12.9036133 C24.8423114,14.0067153 25.0814637,16.2997779 24.205923,17.6069972 L17.9474283,26.9225638 C17.075941,28.2341261 14.9600509,28.7509337 13.5170301,27.6521746 C12.0659025,26.5577584 11.3241249,25.0160213 12.1915588,23.7174877 L19.4553039,12.8949274 C20.3267912,11.5963939 21.9562698,11.8091971 23.3992906,12.9036133 Z" id="Stroke-26" stroke="#717171" stroke-width="0.5" fill="none"></path>
                                <path d="M12.4590997,35.110907 C12.4590997,35.110907 11.0518356,27.9704948 8.58384086,28.2584829 C6.61029029,28.5380008 4.28724992,30.6005043 4.67604361,36.7075472 C5.6272185,41.8668374 15.1214912,48.2016628 19.3432836,36.7075472" id="Fill-28" stroke="none" fill="#FEFEFE" fill-rule="evenodd"></path>
                                <path d="M13.4886736,34.4289688 C13.0487062,32.2536843 12.0503187,27.1666687 9.12707392,27.1666687 C4.96853613,27.1624118 3.91938316,33.8883403 4.41011601,36.7830438 C4.97276659,40.0651267 7.99754229,42.7640119 11.208458,43.3131542 C15.8873418,44.1049407 18.8401998,40.2183757 20.3800856,36.2977553 C20.6212216,35.6932731 19.6397559,35.4250873 19.4028504,36.0338264 C18.1125615,39.3073955 15.7265845,42.7767827 11.7711086,42.3681187 C9.08053891,42.0914191 6.41535192,39.9927591 5.59887401,37.3832691 C4.9050793,35.1824431 5.68771357,27.2177517 9.5374281,28.4777991 C11.4918986,29.1120797 12.1391583,32.8411388 12.5156688,34.6928976 C12.6425825,35.3356921 13.6198177,35.0675063 13.4886736,34.4289688" id="Fill-30" stroke="none" fill="#717171" fill-rule="evenodd"></path>
                                <path d="M23.2801701,9.47687414 C24.6911875,10.4997977 25.220319,12.1933518 24.1452581,13.700148 L15.4691809,25.9073193 C14.4109179,27.409871 12.5967527,27.5159834 11.1815358,26.5015488 C9.76631895,25.4786252 9.14059993,23.920895 10.2114613,22.4225878 L19.0975114,9.92254625 C20.1725722,8.41575007 21.8691527,8.46668402 23.2801701,9.47687414" id="Fill-32" stroke="none" fill="#B4B5B5" fill-rule="evenodd"></path>
                                <path d="M23.2801701,9.47687414 C24.6911875,10.4997977 25.220319,12.1933518 24.1452581,13.700148 L15.4691809,25.9073193 C14.4109179,27.409871 12.5967527,27.5159834 11.1815358,26.5015488 C9.76631895,25.4786252 9.14059993,23.920895 10.2114613,22.4225878 L19.0975114,9.92254625 C20.1725722,8.41575007 21.8691527,8.46668402 23.2801701,9.47687414 Z" id="Stroke-34" stroke="#717171" stroke-width="0.5" fill="none"></path>
                                <path d="M20.4578904,12.1008485 C20.6513233,12.2438485 20.7286964,12.4865152 20.6212337,12.6295152 L20.1226068,13.3488485 C20.0151442,13.4961818 19.7658307,13.5135152 19.5595024,13.3618485 C19.361771,13.2188485 19.2843979,12.9805152 19.3918606,12.8331818 L19.894786,12.1138485 C20.0022486,11.9665152 20.2515621,11.9621818 20.4578904,12.1008485" id="Fill-36" stroke="none" fill="#F6F7F7" fill-rule="evenodd"></path>
                                <path d="M18.3008918,15.3561906 C18.5029217,15.4861906 18.5845933,15.7375239 18.4771306,15.8848572 L17.9742053,16.5998572 C17.8667426,16.7471906 17.6174292,16.7558572 17.4111008,16.6128572 C17.2090709,16.4698572 17.1359963,16.2315239 17.243459,16.0755239 L17.7463844,15.3648572 C17.84525,15.2131906 18.1031605,15.2131906 18.3008918,15.3561906" id="Fill-38" stroke="none" fill="#F6F7F7" fill-rule="evenodd"></path>
                            </g>
                        </g>
                    </g>
                </g>
            </g>
        </g>
    </g>
</svg>