<?xml version="1.0" encoding="UTF-8"?>
<svg width="24px" height="24px" viewBox="0 0 24 24" version="1.1" xmlns="http://www.w3.org/2000/svg" xmlns:xlink="http://www.w3.org/1999/xlink">
    <!-- Generator: Sketch 51.1 (57501) - http://www.bohemiancoding.com/sketch -->
    <title>Rectangle 3</title>
    <desc>Created with Sketch.</desc>
    <defs></defs>
    <g id="-悬浮" stroke="none" stroke-width="1" fill="none" fill-rule="evenodd">
        <g id="游戏内悬浮-无登录" transform="translate(-141.000000, -176.000000)" stroke="#999999">
            <g id="按钮" transform="translate(15.000000, 168.000000)">
                <g id="开服" transform="translate(126.000000, 8.000000)">
                    <g id="开服-copy" transform="translate(2.000000, 2.000000)">
                        <path d="M18.7325615,10.8127351 L18.4818636,10.5 L18.7325615,10.1872649 C19.226649,9.57091122 19.5,8.80703208 19.5,8 L19.5,4 C19.5,2.06700338 17.9329966,0.5 16,0.5 L4,0.5 C2.06700338,0.5 0.5,2.06700338 0.5,4 L0.5,8 C0.5,8.80703208 0.773350982,9.57091122 1.26743855,10.1872649 L1.51813637,10.5 L1.26743855,10.8127351 C0.773350982,11.4290888 0.5,12.1929679 0.5,13 L0.5,17 C0.5,18.9329966 2.06700338,20.5 4,20.5 L16,20.5 C17.9329966,20.5 19.5,18.9329966 19.5,17 L19.5,13 C19.5,12.1929679 19.226649,11.4290888 18.7325615,10.8127351 Z" id="Combined-Shape"></path>
                        <circle id="Oval-4" stroke-linejoin="round" cx="6" cy="6" r="2"></circle>
                        <path d="M10.5,6.5 L16,6.5" id="Line-4" stroke-linecap="round"></path>
                        <circle id="Oval-4" stroke-linejoin="round" cx="6" cy="15" r="2"></circle>
                        <path d="M10.5,15.5 L16,15.5" id="Line-4" stroke-linecap="round"></path>
                    </g>
                </g>
            </g>
        </g>
    </g>
</svg>