<?xml version="1.0" encoding="UTF-8"?>
<svg width="20px" height="20px" viewBox="0 0 20 20" version="1.1" xmlns="http://www.w3.org/2000/svg" xmlns:xlink="http://www.w3.org/1999/xlink">
    <!-- Generator: Sketch 51.1 (57501) - http://www.bohemiancoding.com/sketch -->
    <title>设置</title>
    <desc>Created with Sketch.</desc>
    <defs></defs>
    <g id="-悬浮" stroke="none" stroke-width="1" fill="none" fill-rule="evenodd">
        <g id="游戏内悬浮-无登录" transform="translate(-217.000000, -83.000000)">
            <rect fill="#FFFFFF" x="0" y="0" width="375" height="667"></rect>
            <rect id="Rectangle-3" fill="#000000" opacity="0.400000006" x="0" y="0" width="375" height="667"></rect>
            <rect id="Rectangle-29" fill="#FFFFFF" x="0" y="64" width="306" height="667"></rect>
            <g id="设置" transform="translate(217.000000, 83.000000)" fill="#5E5E5E" fill-rule="nonzero">
                <path d="M16.5697946,5.50386487 C16.5189393,5.60718403 16.4859594,5.71156577 16.4238747,5.79407111 C16.0962635,6.22945339 15.7624437,6.66021036 15.427624,7.09009229 C15.3786021,7.15303385 15.3754145,7.19918266 15.4091236,7.27445837 C15.5336471,7.55253882 15.6480246,7.83528624 15.7604645,8.11855453 C15.7838192,8.17741249 15.8088406,8.20468509 15.874592,8.21435238 C16.4648131,8.30114966 17.0542842,8.39284307 17.6440678,8.4825572 C17.8790312,8.51828868 17.9991796,8.65402661 17.9994296,8.89187531 C18.0002005,9.64192373 18.0001588,10.3919513 17.9994921,11.1419998 C17.9992838,11.3836404 17.8683435,11.5284622 17.6305258,11.5639228 C17.0371588,11.6524077 16.444021,11.7425385 15.8514456,11.8361904 C15.8164866,11.8417116 15.7726106,11.8777972 15.7579436,11.9107994 C15.6356285,12.186088 15.5168967,12.4630434 15.4040401,12.7423114 C15.3905399,12.7757094 15.4058527,12.8359008 15.4296449,12.8669444 C15.7717147,13.3131608 16.1167014,13.7571686 16.4628339,14.2002597 C16.6306709,14.4151069 16.6401502,14.5603663 16.4685007,14.7687339 C15.9642398,15.3808359 15.4203738,15.9551438 14.7938602,16.4444671 C14.5301462,16.6504387 14.3980808,16.6386046 14.134596,16.4325497 C13.710816,16.1011116 13.2858901,15.7711111 12.8643602,15.4368396 C12.8036922,15.3887323 12.7598162,15.3876489 12.6901897,15.4186925 C12.4466844,15.5272621 12.201575,15.6337481 11.9509445,15.7240039 C11.8552341,15.7584645 11.8265877,15.8076135 11.8140666,15.8984735 C11.7468568,16.3860883 11.6762719,16.8732864 11.6025412,17.3599637 C11.5838949,17.4830133 11.5552693,17.6053337 11.5210811,17.7250915 C11.4663091,17.916958 11.3524316,17.999505 11.1554065,17.99963 C10.391515,18.0001092 9.62762344,18.00013 8.86371106,17.9996508 C8.63135186,17.999505 8.49593227,17.8808723 8.46124402,17.6507325 C8.37028371,17.0474227 8.28021926,16.4439462 8.18555055,15.8412198 C8.18011293,15.8066342 8.14311212,15.7631314 8.11002808,15.7489847 C7.83945972,15.6333314 7.56709965,15.5216575 7.29288539,15.4149214 C7.2611972,15.4025873 7.2058835,15.4155881 7.17677872,15.4372979 C6.70110176,15.7922166 6.22788318,16.1504481 5.75408125,16.5079087 C5.60589055,16.6197284 5.41828232,16.6269372 5.28482109,16.5064294 C4.6923291,15.9713324 4.10148298,15.4342143 3.59505535,14.8129867 C3.48353211,14.6761862 3.41750985,14.5285308 3.48794887,14.3527278 C3.5120119,14.2926823 3.55159607,14.2372829 3.59136777,14.185342 C3.92058324,13.7554393 4.2504237,13.3259949 4.58324341,12.898884 C4.62645268,12.8434429 4.6230776,12.8035653 4.5964312,12.7416655 C4.47194933,12.4524593 4.35217591,12.1610863 4.23827761,11.8675465 C4.21586047,11.8097928 4.18906822,11.7842078 4.13185865,11.7759781 C3.54486678,11.6917227 2.9581874,11.6051962 2.3710497,11.5218784 C2.1275236,11.4873136 2.00095837,11.3495964 2.00066668,11.1027471 C1.99979166,10.3526987 1.99975,9.60267112 2.00070835,8.85262269 C2.00102087,8.61437815 2.130732,8.47276482 2.3645704,8.43817926 C2.96158331,8.34986106 3.55830458,8.25945938 4.1545258,8.16601585 C4.18598481,8.16107803 4.22490232,8.12626329 4.23834012,8.09569882 C4.36225946,7.8136181 4.48328292,7.53020397 4.59905627,7.24470637 C4.61161905,7.21370436 4.59791041,7.15780493 4.57593076,7.12917807 C4.25054873,6.70525487 3.92177078,6.28395683 3.59357617,5.86220044 C3.57226321,5.83482368 3.54867936,5.80921785 3.52703306,5.78209111 C3.37573811,5.59247469 3.36765462,5.43673547 3.52059541,5.24555647 C3.67649461,5.05066889 3.83620642,4.85705221 4.01106437,4.67945741 C4.33471721,4.35072786 4.66866194,4.0319781 5.00285668,3.71383257 C5.08771268,3.63305653 5.18594398,3.5645521 5.28459195,3.50046463 C5.48715883,3.36885197 5.60941148,3.37751918 5.80597823,3.52929982 C6.06423383,3.72872937 6.32113521,3.92992986 6.57868247,4.13029697 C6.77045746,4.27951494 6.96304495,4.42773284 7.1535699,4.57851341 C7.19554998,4.61172388 7.22796734,4.62091197 7.28246852,4.59703543 C7.55214101,4.4788403 7.82268855,4.36187442 8.09775699,4.25715932 C8.1809463,4.22549062 8.17369613,4.16754937 8.18175881,4.11083738 C8.24086427,3.69524804 8.29413625,3.27882532 8.35586675,2.86363185 C8.38336734,2.67864073 8.42153484,2.49485803 8.46320242,2.31245043 C8.51145346,2.10112428 8.63068522,2.00290962 8.84656487,2.00213872 C9.61391482,1.99943021 10.3813064,1.99909685 11.1486564,2.00228456 C11.3810989,2.00324295 11.5021223,2.12718847 11.5396648,2.37570451 C11.6287709,2.96559675 11.7205437,3.55509316 11.8070873,4.14536044 C11.8167125,4.21107302 11.8436714,4.23747056 11.9024435,4.2605137 C12.1668451,4.36414539 12.4280174,4.47604845 12.6927731,4.57880509 C12.7286906,4.59274349 12.7894419,4.58703478 12.8196509,4.56467917 C13.2939945,4.2136565 13.7659213,3.85930028 14.2368065,3.50361066 C14.4017684,3.37899845 14.5906892,3.36731019 14.7400674,3.50527742 C15.3365803,4.05627134 15.9401559,4.60122319 16.4392292,5.24703572 C16.4938554,5.31776952 16.5223769,5.40869205 16.5697946,5.50386487 Z M10.0060722,13.428476 C11.9071414,13.4428821 13.4548861,11.8249719 13.4282323,9.96582516 C13.4013108,8.08718454 11.8863482,6.56995689 9.99619742,6.57142964 C8.08766193,6.5729024 6.56630345,8.1003054 6.57144155,10.0097667 C6.57655287,11.9099362 8.1080805,13.4343402 10.0060722,13.428476 Z" id="Shape"></path>
            </g>
            <text id="设置" font-family="PingFangSC-Regular, PingFang SC" font-size="10" font-weight="normal" fill="#5E5E5E">
                <tspan x="217" y="113">设置</tspan>
            </text>
        </g>
    </g>
</svg>