<?xml version="1.0" encoding="UTF-8"?>
<svg width="12px" height="12px" viewBox="0 0 12 12" version="1.1" xmlns="http://www.w3.org/2000/svg" xmlns:xlink="http://www.w3.org/1999/xlink">
    <!-- Generator: Sketch 51.1 (57501) - http://www.bohemiancoding.com/sketch -->
    <title>Shape</title>
    <desc>Created with Sketch.</desc>
    <defs></defs>
    <g id="Page-1" stroke="none" stroke-width="1" fill="none" fill-rule="evenodd">
        <g id="首页_热门_带通知" transform="translate(-16.000000, -291.000000)">
            <rect fill="#FFFFFF" x="0" y="0" width="375" height="667"></rect>
            <rect id="矩形分割" fill="#F3F3F3" x="0" y="281" width="375" height="32"></rect>
            <g id="通知栏" transform="translate(0.000000, 285.000000)">
                <rect id="矩形分割" fill="#FFE9E0" x="0" y="0" width="376" height="24"></rect>
                <g id="喇叭" transform="translate(16.000000, 6.000000)" fill="#FF6666" fill-rule="nonzero">
                    <path d="M10.7571429,3.00032695 C10.5857143,2.83188534 10.3285714,2.83188534 10.1571429,3.00032695 C9.98571429,3.16876856 9.98571429,3.42143097 10.1571429,3.58987258 C10.7571429,4.17941821 11.1428571,5.02162626 11.1428571,5.99016551 C11.1428571,6.95870476 10.7571429,7.7588024 10.1571429,8.39045844 C9.98571429,8.55890005 9.98571429,8.81156246 10.1571429,8.98000407 C10.3285714,9.14844568 10.5857143,9.14844568 10.7571429,8.98000407 C11.5285714,8.22201683 12,7.16925677 12,5.99016551 C12,4.81107424 11.5285714,3.75831419 10.7571429,3.00032695 Z M9.51428571,4.22152861 C9.34285714,4.053087 9.08571429,4.053087 8.91428571,4.22152861 C8.74285714,4.38997022 8.74285714,4.64263264 8.91428571,4.81107424 C9.21428571,5.10584706 9.42857143,5.52695108 9.42857143,5.99016551 C9.42857143,6.45337993 9.25714286,6.87448396 8.91428571,7.16925677 C8.74285714,7.33769838 8.74285714,7.59036079 8.91428571,7.7588024 C9.08571429,7.92724401 9.34285714,7.92724401 9.51428571,7.7588024 C9.98571429,7.29558798 10.2857143,6.66393194 10.2857143,5.99016551 C10.2857143,5.31639907 9.98571429,4.64263264 9.51428571,4.22152861 Z M6.6,1.14746925 L3.42857143,3.04243735 L3.42857143,8.93789367 L6.6,10.8328618 C7.2,11.2118554 7.71428571,10.9170826 7.71428571,10.2433161 L7.71428571,1.77912528 C7.71428571,1.06324844 7.2,0.810586029 6.6,1.14746925 Z M0,4.30574942 L0,7.6745816 C0,8.39045844 0.557142857,8.93789367 1.28571429,8.93789367 L2.57142857,8.93789367 L2.57142857,3.04243735 L1.28571429,3.04243735 C0.557142857,3.04243735 0,3.58987258 0,4.30574942 Z" id="Shape"></path>
                </g>
            </g>
        </g>
    </g>
</svg>