<?xml version="1.0" encoding="UTF-8"?>
<svg width="24px" height="24px" viewBox="0 0 24 24" version="1.1" xmlns="http://www.w3.org/2000/svg" xmlns:xlink="http://www.w3.org/1999/xlink">
    <!-- Generator: Sketch 46.1 (44463) - http://www.bohemiancoding.com/sketch -->
    <title>icon_账户充值</title>
    <desc>Created with Sketch.</desc>
    <defs>
        <linearGradient x1="26.0179508%" y1="7.92263005%" x2="69.9796641%" y2="89.3281848%" id="linearGradient-1">
            <stop stop-color="#B3BFCC" offset="0%"></stop>
            <stop stop-color="#8C9DB0" offset="100%"></stop>
        </linearGradient>
    </defs>
    <g id="Page-1" stroke="none" stroke-width="1" fill="none" fill-rule="evenodd">
        <g id="我的_已登录" transform="translate(-10.000000, -304.000000)">
            <g id="#1" transform="translate(10.000000, 304.000000)">
                <g id="icon_账户充值">
                    <circle id="Oval" fill="url(#linearGradient-1)" cx="12" cy="12" r="10"></circle>
                    <path d="M8.81862407,7.88715148 L12.9866261,7.85883233 L12.9866261,7.85883233 C13.5351585,7.85510537 13.9828532,8.29675743 13.9865801,8.84528982 C13.9865954,8.8475392 13.9866031,8.84978863 13.9866031,8.85203807 L13.9866031,8.85203807 L13.9866031,8.85203807 C13.9866031,9.40541846 13.5399938,9.85507252 12.9866261,9.85883233 L8.81862407,9.88715148 L8.81862407,9.88715148 C8.27009169,9.89087844 7.82239703,9.44922638 7.81867008,8.900694 C7.81865479,8.89844461 7.81864715,8.89619518 7.81864715,8.89394574 L7.81864715,8.89394574 L7.81864715,8.89394574 C7.81864715,8.34056535 8.26525645,7.89091129 8.81862407,7.88715148 Z" id="Rectangle-6" fill="#FFFFFF" transform="translate(10.902625, 8.872992) rotate(-315.000000) translate(-10.902625, -8.872992) "></path>
                    <path d="M11.4911907,7.76347128 L15.3220911,7.63756837 L15.3220911,7.63756837 C15.8562347,7.62001369 16.3034746,8.03879179 16.3210293,8.57293545 C16.3213774,8.58352706 16.3215515,8.59412368 16.3215515,8.60472101 L16.3215515,8.60472101 L16.3215515,8.60472101 C16.3215515,9.16224091 15.8793101,9.61925532 15.3220911,9.63756837 L11.4911907,9.76347128 L11.4911907,9.76347128 C10.957047,9.78102597 10.5098072,9.36224786 10.4922525,8.82810421 C10.4919044,8.81751259 10.4917303,8.80691598 10.4917303,8.79631864 L10.4917303,8.79631864 L10.4917303,8.79631864 C10.4917303,8.23879875 10.9339716,7.78178434 11.4911907,7.76347128 Z" id="Rectangle-6-Copy-2" fill="#FFFFFF" transform="translate(13.406641, 8.700520) scale(-1, 1) rotate(-315.000000) translate(-13.406641, -8.700520) "></path>
                    <path d="M9,9.58380587 L15.1213203,9.58380587 L15.1213203,9.58380587 C15.6736051,9.58380587 16.1213203,10.0315211 16.1213203,10.5838059 L16.1213203,10.5838059 L16.1213203,10.5838059 C16.1213203,11.1360906 15.6736051,11.5838059 15.1213203,11.5838059 L9,11.5838059 L9,11.5838059 C8.44771525,11.5838059 8,11.1360906 8,10.5838059 L8,10.5838059 L8,10.5838059 C8,10.0315211 8.44771525,9.58380587 9,9.58380587 Z" id="Rectangle-6-Copy-3" fill="#FFFFFF" transform="translate(12.060660, 10.583806) scale(-1, 1) rotate(-360.000000) translate(-12.060660, -10.583806) "></path>
                    <path d="M9,12.5838059 L15.1213203,12.5838059 L15.1213203,12.5838059 C15.6736051,12.5838059 16.1213203,13.0315211 16.1213203,13.5838059 L16.1213203,13.5838059 L16.1213203,13.5838059 C16.1213203,14.1360906 15.6736051,14.5838059 15.1213203,14.5838059 L9,14.5838059 L9,14.5838059 C8.44771525,14.5838059 8,14.1360906 8,13.5838059 L8,13.5838059 L8,13.5838059 C8,13.0315211 8.44771525,12.5838059 9,12.5838059 Z" id="Rectangle-6-Copy-4" fill="#FFFFFF" transform="translate(12.060660, 13.583806) scale(-1, 1) rotate(-360.000000) translate(-12.060660, -13.583806) "></path>
                    <path d="M8.93933983,12.644466 L15.0606602,12.644466 L15.0606602,12.644466 C15.6129449,12.644466 16.0606602,13.0921813 16.0606602,13.644466 L16.0606602,13.644466 L16.0606602,13.644466 C16.0606602,14.1967508 15.6129449,14.644466 15.0606602,14.644466 L8.93933983,14.644466 L8.93933983,14.644466 C8.38705508,14.644466 7.93933983,14.1967508 7.93933983,13.644466 L7.93933983,13.644466 L7.93933983,13.644466 C7.93933983,13.0921813 8.38705508,12.644466 8.93933983,12.644466 Z" id="Rectangle-6-Copy-5" fill="#FFFFFF" transform="translate(12.000000, 13.644466) scale(-1, 1) rotate(-90.000000) translate(-12.000000, -13.644466) "></path>
                </g>
            </g>
        </g>
    </g>
</svg>