<?xml version="1.0" encoding="UTF-8"?>
<svg width="24px" height="24px" viewBox="0 0 24 24" version="1.1" xmlns="http://www.w3.org/2000/svg" xmlns:xlink="http://www.w3.org/1999/xlink">
    <!-- Generator: Sketch 46.1 (44463) - http://www.bohemiancoding.com/sketch -->
    <title>icon_客服中心</title>
    <desc>Created with Sketch.</desc>
    <defs>
        <linearGradient x1="26.0179508%" y1="7.92263005%" x2="69.9796641%" y2="89.3281848%" id="linearGradient-1">
            <stop stop-color="#B3BFCC" offset="0%"></stop>
            <stop stop-color="#8C9DB0" offset="100%"></stop>
        </linearGradient>
    </defs>
    <g id="Page-1" stroke="none" stroke-width="1" fill="none" fill-rule="evenodd">
        <g id="我的_已登录" transform="translate(-10.000000, -589.000000)">
            <g id="#1-copy-5" transform="translate(10.000000, 589.000000)">
                <g id="icon_客服中心">
                    <path d="M6.40336316,19.1244336 L6.42623888,16.2555644 C3.02331754,12.0696201 2.49496724,8.42647635 4.84118798,5.32613329 C8.3605191,0.675618708 17.4518045,2.62585299 18.5400001,8.92423778 C19.0583546,11.9244299 20.6464063,12.8566626 20.4048084,13.2649823 C20.1632104,13.673302 19.8236156,14.0806539 19.019809,14.4920378 C18.2160023,14.9034218 19.1989365,17.589684 18.2319144,18.0545945 C17.2648923,18.519505 15.8886845,18.4768196 15.4747781,18.9292132 C15.3514757,19.063981 15.255722,19.2899487 15.1875171,19.6071162 L15.187502,19.607113 C14.9878368,20.5355999 14.1627333,21.1956287 13.2130641,21.186534 L8.38414708,21.140289 L8.38414708,21.140289 C7.28087982,21.1297233 6.39456582,20.2277164 6.40336316,19.1244336 Z" id="Path-5" fill="url(#linearGradient-1)"></path>
                    <rect id="Rectangle-15" fill="#FFFFFF" x="10" y="2.40482792" width="2" height="9"></rect>
                    <path d="M9.76379355,11.3553376 C10.004278,11.0243392 10.4675565,10.9509631 10.7985549,11.1914475 L14.0438469,13.5492901 C14.3748453,13.7897746 14.4482214,14.253053 14.207737,14.5840515 C13.9672525,14.91505 13.503974,14.9884261 13.1729756,14.7479416 L9.92768366,12.390099 C9.59668519,12.1496145 9.52330909,11.6863361 9.76379355,11.3553376 Z" id="Rectangle-15-Copy" fill="#FFFFFF"></path>
                    <path d="M11,14.4048279 C12.1045695,14.4048279 13,13.5093974 13,12.4048279 C13,11.3002584 12.1045695,10.4048279 11,10.4048279 C9.8954305,10.4048279 9,11.3002584 9,12.4048279 C9,13.5093974 9.8954305,14.4048279 11,14.4048279 Z" id="Oval-5" fill="#FFFFFF"></path>
                </g>
            </g>
        </g>
    </g>
</svg>