<?xml version="1.0" encoding="UTF-8"?>
<svg width="24px" height="24px" viewBox="0 0 24 24" version="1.1" xmlns="http://www.w3.org/2000/svg" xmlns:xlink="http://www.w3.org/1999/xlink">
    <!-- Generator: Sketch 46.1 (44463) - http://www.bohemiancoding.com/sketch -->
    <title>icon_实名认证</title>
    <desc>Created with Sketch.</desc>
    <defs>
        <linearGradient x1="26.0179508%" y1="7.92263005%" x2="69.9796641%" y2="89.3281848%" id="linearGradient-1">
            <stop stop-color="#B3BFCC" offset="0%"></stop>
            <stop stop-color="#8C9DB0" offset="100%"></stop>
        </linearGradient>
    </defs>
    <g id="Page-1" stroke="none" stroke-width="1" fill="none" fill-rule="evenodd">
        <g id="我的_已登录" transform="translate(-10.000000, -418.000000)">
            <g id="#1-copy-2" transform="translate(10.000000, 418.000000)">
                <g id="icon_实名认证">
                    <path d="M5.42260642,4.04383129 C5.42260642,4.04383129 5.42260642,4.04383129 5.42260642,4.04383129 C5.42260642,4.94700941 4.77747553,5.81398849 3.48721374,6.64476855 L3.48721714,6.64477383 C2.87926831,7.03622289 2.52994984,7.72533784 2.5736064,8.44709144 C2.5889715,8.70111549 2.60689767,8.91793278 2.62738491,9.09754329 C3.35131421,15.4441904 7.75925888,21.9722006 11.7110315,21.9722006 C15.5594626,21.9722006 19.7778408,15.4353376 20.709542,9.31355813 C20.7450606,9.08018148 20.7780278,8.79212939 20.8084436,8.44940189 L20.8084447,8.449402 C20.8728905,7.72322079 20.5370929,7.01949764 19.9320563,6.61277529 C18.6959694,5.78184354 18.0779259,4.92552887 18.0779259,4.04383129 C18.0779259,4.04383129 18.0779259,4.04383129 18.0779259,4.04383129 L18.0779259,4.04383129 C18.0779259,3.5008628 17.6382416,3.06044708 17.0952739,3.05954461 L6.42633152,3.04177533 L6.42633153,3.0417731 C5.87291007,3.04085325 5.42352765,3.4887443 5.4226078,4.04216576 C5.42260688,4.04272094 5.42260642,4.04327611 5.42260642,4.04383129 Z" id="Combined-Shape" fill="url(#linearGradient-1)"></path>
                    <path d="M7.79737622,11.905359 C9.48640023,13.8861114 10.3845347,14.8694861 10.4917796,14.8554832 C10.5990245,14.8414802 12.2859925,13.1773503 15.5526837,9.86309359" id="Path-6" stroke="#FFFFFF" stroke-width="2" stroke-linecap="round" stroke-linejoin="bevel"></path>
                </g>
            </g>
        </g>
    </g>
</svg>