<?xml version="1.0" encoding="UTF-8"?>
<svg width="24px" height="24px" viewBox="0 0 24 24" version="1.1" xmlns="http://www.w3.org/2000/svg" xmlns:xlink="http://www.w3.org/1999/xlink">
    <!-- Generator: Sketch 46.1 (44463) - http://www.bohemiancoding.com/sketch -->
    <title>icon_用户条款</title>
    <desc>Created with Sketch.</desc>
    <defs>
        <linearGradient x1="26.0179508%" y1="7.92263005%" x2="69.9796641%" y2="89.3281848%" id="linearGradient-1">
            <stop stop-color="#B3BFCC" offset="0%"></stop>
            <stop stop-color="#8C9DB0" offset="100%"></stop>
        </linearGradient>
        <path d="M9.91545684,2.5 L13.9154568,2.5 L13.9154568,2.5 C14.743884,2.5 15.4154568,3.17157288 15.4154568,4 L15.4154568,4 L15.4154568,4 C15.4154568,4.82842712 14.743884,5.5 13.9154568,5.5 L9.91545684,5.5 L9.91545684,5.5 C9.08702972,5.5 8.41545684,4.82842712 8.41545684,4 L8.41545684,4 L8.41545684,4 C8.41545684,3.17157288 9.08702972,2.5 9.91545684,2.5 Z" id="path-2"></path>
    </defs>
    <g id="Page-1" stroke="none" stroke-width="1" fill="none" fill-rule="evenodd">
        <g id="我的_已登录" transform="translate(-10.000000, -532.000000)">
            <g id="#1-copy-4" transform="translate(10.000000, 532.000000)">
                <g id="icon_用户条款">
                    <rect id="Rectangle-16" fill="url(#linearGradient-1)" x="4" y="6" width="16" height="16" rx="2"></rect>
                    <rect id="Rectangle-18" fill="#FFFFFF" x="8" y="11" width="8" height="2" rx="1"></rect>
                    <path d="M9,15 L11,15 L11,15 C11.5522847,15 12,15.4477153 12,16 L12,16 L12,16 C12,16.5522847 11.5522847,17 11,17 L9,17 L9,17 C8.44771525,17 8,16.5522847 8,16 L8,16 L8,16 C8,15.4477153 8.44771525,15 9,15 Z" id="Rectangle-18-Copy" fill="#FFFFFF"></path>
                    <g id="Rectangle-17">
                        <use fill="#B3BFCD" fill-rule="evenodd" xlink:href="#path-2"></use>
                        <path stroke="#FFFFFF" stroke-width="2" d="M9.91545684,1.5 L13.9154568,1.5 C15.2961687,1.5 16.4154568,2.61928813 16.4154568,4 C16.4154568,5.38071187 15.2961687,6.5 13.9154568,6.5 L9.91545684,6.5 C8.53474497,6.5 7.41545684,5.38071187 7.41545684,4 C7.41545684,2.61928813 8.53474497,1.5 9.91545684,1.5 Z"></path>
                    </g>
                </g>
            </g>
        </g>
    </g>
</svg>