<?xml version="1.0" encoding="UTF-8"?>
<svg width="24px" height="24px" viewBox="0 0 24 24" version="1.1" xmlns="http://www.w3.org/2000/svg" xmlns:xlink="http://www.w3.org/1999/xlink">
    <!-- Generator: Sketch 46.1 (44463) - http://www.bohemiancoding.com/sketch -->
    <title>icon_消费记录</title>
    <desc>Created with Sketch.</desc>
    <defs>
        <linearGradient x1="26.0179508%" y1="7.92263005%" x2="69.9796641%" y2="89.3281848%" id="linearGradient-1">
            <stop stop-color="#B3BFCC" offset="0%"></stop>
            <stop stop-color="#8C9DB0" offset="100%"></stop>
        </linearGradient>
    </defs>
    <g id="Page-1" stroke="none" stroke-width="1" fill="none" fill-rule="evenodd">
        <g id="我的_已登录" transform="translate(-10.000000, -361.000000)">
            <g id="#1-copy" transform="translate(10.000000, 361.000000)">
                <g id="icon_消费记录">
                    <path d="M2,9 L2,8 L2,8 C2,6.34314575 3.34314575,5 5,5 L5,5 L19,5 C20.6568542,5 22,6.34314575 22,8 L22,9 C20.3431458,9 19,10.3431458 19,12 C19,13.6568542 20.3431458,15 22,15 L22,16 C22,17.6568542 20.6568542,19 19,19 L5,19 C3.34314575,19 2,17.6568542 2,16 L2,15 C3.65685425,15 5,13.6568542 5,12 C5,10.3431458 3.65685425,9 2,9 Z" id="Combined-Shape" fill="url(#linearGradient-1)"></path>
                    <rect id="Rectangle-22" fill="#FFFFFF" x="8" y="9" width="8" height="2" rx="1"></rect>
                    <rect id="Rectangle-22-Copy" fill="#FFFFFF" x="8" y="13" width="8" height="2" rx="1"></rect>
                </g>
            </g>
        </g>
    </g>
</svg>