<?xml version="1.0" encoding="UTF-8"?>
<svg width="30px" height="30px" viewBox="0 0 30 30" version="1.1" xmlns="http://www.w3.org/2000/svg" xmlns:xlink="http://www.w3.org/1999/xlink">
    <!-- Generator: Sketch 51.1 (57501) - http://www.bohemiancoding.com/sketch -->
    <title>微信icon copy</title>
    <desc>Created with Sketch.</desc>
    <defs>
        <rect id="path-1" x="0" y="0" width="30" height="30" rx="4"></rect>
    </defs>
    <g id="游戏币" stroke="none" stroke-width="1" fill="none" fill-rule="evenodd">
        <g id="游戏币支付" transform="translate(-15.000000, -474.000000)">
            <g id="we-pay" transform="translate(15.000000, 474.000000)">
                <g id="微信icon-copy">
                    <mask id="mask-2" fill="white">
                        <use xlink:href="#path-1"></use>
                    </mask>
                    <use id="Mask" fill="#00B40D" xlink:href="#path-1"></use>
                    <g id="微信" mask="url(#mask-2)" fill-rule="nonzero">
                        <g transform="translate(2.000000, 2.000000)" id="Shape">
                            <path d="M23.4,26 L2.6,26 C1.17,26 4.53869515e-10,24.83 0,23.4 L0,2.6 C0,1.17 1.17,4.53869515e-10 2.6,0 L23.4,0 C24.83,0 26,1.17 26,2.6 L26,23.4 C26,24.83 24.83,26 23.4,26 Z" fill="#00B30D"></path>
                            <path d="M17.5,10.1247368 C13.8632568,10.1247368 11,12.4378796 11,15.2664511 C11,18.1075939 13.8632568,20.4081653 17.5,20.4081653 C18.2599165,20.4081653 19.0334029,20.2321653 19.7933194,20.0561653 L21.8966597,21.1247368 L21.3267223,19.3521653 C22.8601253,18.2835939 24,16.8630225 24,15.2664511 C24,12.4378796 20.9331942,10.1247368 17.5,10.1247368 Z M15.5052192,14.4493082 C15.0438413,14.4493082 14.677453,14.1098796 14.677453,13.6824511 C14.677453,13.2550225 15.0438413,12.9155939 15.5052192,12.9155939 C15.9665971,12.9155939 16.3329854,13.2550225 16.3329854,13.6824511 C16.3329854,14.1098796 15.9665971,14.4493082 15.5052192,14.4493082 Z M19.67119,14.4493082 C19.2098121,14.4493082 18.8434238,14.1098796 18.8434238,13.6824511 C18.8434238,13.2550225 19.2098121,12.9155939 19.67119,12.9155939 C20.1325679,12.9155939 20.4989562,13.2550225 20.4989562,13.6824511 C20.4989562,14.1098796 20.1325679,14.4493082 19.67119,14.4493082 Z" fill="#FFFFFF"></path>
                            <path d="M2.52098323,10.7392737 C2.52098323,12.6955844 3.63209434,14.298497 5.51040122,15.5480116 L4.76966048,17.6936426 L7.37548058,16.4441281 C8.31463402,16.6208271 9.05537476,16.7975261 9.9945282,16.7975261 C10.2326234,16.7975261 10.4574912,16.7849048 10.6955864,16.7722834 C10.5500838,16.2926718 10.4707187,15.8004388 10.4707187,15.282963 C10.4707187,12.1781087 13.2749515,9.65383682 16.8066975,9.65383682 C17.0447928,9.65383682 17.282888,9.66645817 17.5209832,9.69170089 C16.8596076,6.82665235 13.6585494,4.69364264 9.98130069,4.69364264 C5.88077159,4.69364264 2.52098323,7.35674944 2.52098323,10.7392737 Z M7.98394619,9.35092419 C7.82521603,9.43927371 7.65325836,9.48975915 7.46807317,9.48975915 C6.89929011,9.48975915 6.43632714,9.04801157 6.43632714,8.50529313 C6.43632714,7.96257468 6.8992901,7.52082711 7.46807317,7.52082711 C8.03685624,7.52082711 8.49981921,7.96257468 8.49981921,8.50529313 C8.49981921,8.84606982 8.30140651,9.17422516 7.98394619,9.35092419 Z M12.745851,9.47713779 C12.1770679,9.47713779 11.7141049,9.03539021 11.7141049,8.49267177 C11.7141049,7.94995332 12.1770679,7.50820575 12.745851,7.50820575 C13.314634,7.50820575 13.777597,7.94995332 13.777597,8.49267177 C13.7908245,9.03539021 13.3278615,9.47713779 12.745851,9.47713779 Z" fill="#FFFFFF"></path>
                        </g>
                    </g>
                </g>
            </g>
        </g>
    </g>
</svg>