<?xml version="1.0" standalone="no"?><!DOCTYPE svg PUBLIC "-//W3C//DTD SVG 1.1//EN" "http://www.w3.org/Graphics/SVG/1.1/DTD/svg11.dtd"><svg t="1527824212368" class="icon" style="" viewBox="0 0 1024 1024" version="1.1" xmlns="http://www.w3.org/2000/svg" p-id="3969" xmlns:xlink="http://www.w3.org/1999/xlink" width="200" height="200"><defs><style type="text/css"></style></defs><path d="M142.847786 157.696787l851.966722-84.479873s4.095994 198.143703 8.191987 294.911558c0 32.767951-27.135959 65.023902-27.135959 132.607801 0 26.111961 46.59193 133.1198 46.59193 194.559708v160.25576L102.399846 921.599642a1780.22133 1780.22133 0 0 1-47.615928-279.551581c0-85.503872 88.063868-484.351273 88.063868-484.351274z" fill="#FFFFFF" p-id="3970"></path><path d="M1023.998464 853.503744v6.143991A164.351753 164.351753 0 0 1 859.134711 1023.999488H163.839754A164.351753 164.351753 0 0 1 0 859.647735V164.352777A164.351753 164.351753 0 0 1 163.839754 0.001024h695.294957A164.351753 164.351753 0 0 1 1023.998464 164.352777v689.150967zM276.479585 787.967842c-159.74376 0-204.799693-125.439812-126.975809-195.071707a200.1917 200.1917 0 0 1 102.399846-36.863945c94.207859-10.239985 181.759727 26.62396 286.207571 77.823883-75.263887 94.719858-167.423749 153.59977-259.583611 153.59977z m566.78315-145.407782c-40.959939-14.335978-96.255856-34.815948-157.695763-57.343914a886.78267 886.78267 0 0 0 86.015871-215.551676h-204.799693V297.472578h247.295629V256.00064h-245.247632V135.68082h-102.399847a17.919973 17.919973 0 0 0-16.383975 17.919974v102.399846H200.703699v40.959939h249.343626v72.191891h-204.799693V409.60041h400.895399a723.454915 723.454915 0 0 1-57.343914 141.823787c-129.023806-43.007935-267.775598-77.823883-358.399463-55.295917a214.527678 214.527678 0 0 0-112.639831 63.487905c-96.255856 116.735825-26.62396 295.423557 176.127736 295.423556a433.66335 433.66335 0 0 0 327.167509-178.687732C756.734865 742.39991 1023.998464 853.503744 1023.998464 853.503744v-157.695764a1337.853993 1337.853993 0 0 1-181.247728-53.759919z" fill="#07A0F8" p-id="3971"></path></svg>